<svg width="236" height="236" viewBox="0 0 236 236" fill="none" xmlns="http://www.w3.org/2000/svg">
<circle cx="159.5" cy="89.5" r="76.5" fill="#F6F6F6"/>
<path d="M203.862 174.892C207.085 177.028 207.984 181.387 205.648 184.467C197.213 195.59 186.725 205.023 174.73 212.243C160.731 220.67 145.032 225.872 128.772 227.471C112.512 229.071 96.1 227.029 80.728 221.493C65.356 215.957 51.4104 207.066 39.9042 195.466C28.3981 183.866 19.6204 169.849 14.209 154.433C8.79761 139.016 6.88836 122.588 8.61997 106.342C10.3516 90.0954 15.6806 74.4387 24.2198 60.5093C31.5375 48.5725 41.0552 38.161 52.2454 29.8169C55.3446 27.5059 59.6964 28.4402 61.8056 31.6801L77.3081 55.4934C79.4173 58.7333 78.4733 63.0427 75.4688 65.4756C69.5115 70.2995 64.4046 76.1129 60.3806 82.6771C55.134 91.2355 51.8598 100.855 50.7959 110.837C49.7319 120.819 50.905 130.913 54.2298 140.385C57.5547 149.857 62.9477 158.469 70.0173 165.596C77.0868 172.723 85.6551 178.186 95.0998 181.587C104.545 184.989 114.628 186.244 124.619 185.261C134.609 184.278 144.255 181.081 152.855 175.904C159.452 171.934 165.307 166.874 170.179 160.956C172.636 157.971 176.953 157.062 180.175 159.198L203.862 174.892Z" fill="#E6FBE6"/>
<path d="M203.862 174.892C207.085 177.028 207.984 181.387 205.648 184.467C197.213 195.59 186.725 205.023 174.73 212.243C160.731 220.67 145.032 225.872 128.772 227.471C112.512 229.071 96.1 227.029 80.728 221.493C65.356 215.957 51.4104 207.066 39.9042 195.466C28.3981 183.866 19.6204 169.849 14.209 154.433C8.79761 139.016 6.88836 122.588 8.61997 106.342C10.3516 90.0954 15.6806 74.4387 24.2198 60.5093C31.5375 48.5725 41.0552 38.161 52.2454 29.8169C55.3446 27.5059 59.6964 28.4402 61.8056 31.6801L77.3081 55.4934C79.4173 58.7333 78.4733 63.0427 75.4688 65.4756C69.5115 70.2995 64.4046 76.1129 60.3806 82.6771C55.134 91.2355 51.8598 100.855 50.7959 110.837C49.7319 120.819 50.905 130.913 54.2298 140.385C57.5547 149.857 62.9477 158.469 70.0173 165.596C77.0868 172.723 85.6551 178.186 95.0998 181.587C104.545 184.989 114.628 186.244 124.619 185.261C134.609 184.278 144.255 181.081 152.855 175.904C159.452 171.934 165.307 166.874 170.179 160.956C172.636 157.971 176.953 157.062 180.175 159.198L203.862 174.892Z" fill="url(#paint0_linear)"/>
<defs>
<linearGradient id="paint0_linear" x1="16.5039" y1="0.108398" x2="208.426" y2="60.5252" gradientUnits="userSpaceOnUse">
<stop stop-color="white"/>
<stop offset="1" stop-color="#D7F0D6"/>
</linearGradient>
</defs>
</svg>
