<svg width="270" height="270" viewBox="0 0 270 270" fill="none" xmlns="http://www.w3.org/2000/svg">
<circle cx="112" cy="107" r="64" fill="#F6F6F6"/>
<path d="M206.618 60.9736C209.306 58.1951 213.756 58.1074 216.358 60.9667C225.753 71.2908 233.111 83.3255 238.02 96.4383C243.747 111.74 245.994 128.125 244.598 144.404C243.201 160.683 238.195 176.446 229.945 190.548C221.694 204.65 210.405 216.737 196.899 225.931C183.393 235.125 168.008 241.195 151.863 243.7C135.718 246.204 119.217 245.081 103.56 240.411C87.9034 235.741 73.4833 227.642 61.3479 216.703C50.9484 207.328 42.4504 196.069 36.2905 183.543C34.5845 180.073 36.2979 175.966 39.8685 174.484L66.1127 163.591C69.6833 162.109 73.7478 163.825 75.591 167.223C79.2457 173.961 84.0286 180.044 89.7474 185.199C97.2036 191.921 106.063 196.897 115.683 199.766C125.303 202.635 135.441 203.325 145.361 201.786C155.281 200.247 164.733 196.518 173.032 190.869C181.33 185.22 188.266 177.794 193.335 169.129C198.404 160.465 201.48 150.78 202.338 140.778C203.196 130.776 201.816 120.709 198.296 111.307C195.597 104.096 191.692 97.4162 186.764 91.5452C184.278 88.5842 184.173 84.1739 186.861 81.3954L206.618 60.9736Z" fill="#E6FBE6"/>
<path d="M206.618 60.9736C209.306 58.1951 213.756 58.1074 216.358 60.9667C225.753 71.2908 233.111 83.3255 238.02 96.4383C243.747 111.74 245.994 128.125 244.598 144.404C243.201 160.683 238.195 176.446 229.945 190.548C221.694 204.65 210.405 216.737 196.899 225.931C183.393 235.125 168.008 241.195 151.863 243.7C135.718 246.204 119.217 245.081 103.56 240.411C87.9034 235.741 73.4833 227.642 61.3479 216.703C50.9484 207.328 42.4504 196.069 36.2905 183.543C34.5845 180.073 36.2979 175.966 39.8685 174.484L66.1127 163.591C69.6833 162.109 73.7478 163.825 75.591 167.223C79.2457 173.961 84.0286 180.044 89.7474 185.199C97.2036 191.921 106.063 196.897 115.683 199.766C125.303 202.635 135.441 203.325 145.361 201.786C155.281 200.247 164.733 196.518 173.032 190.869C181.33 185.22 188.266 177.794 193.335 169.129C198.404 160.465 201.48 150.78 202.338 140.778C203.196 130.776 201.816 120.709 198.296 111.307C195.597 104.096 191.692 97.4162 186.764 91.5452C184.278 88.5842 184.173 84.1739 186.861 81.3954L206.618 60.9736Z" fill="url(#paint0_linear)"/>
<defs>
<linearGradient id="paint0_linear" x1="0.553711" y1="213.257" x2="95.008" y2="35.5976" gradientUnits="userSpaceOnUse">
<stop stop-color="white"/>
<stop offset="1" stop-color="#D7F0D6"/>
</linearGradient>
</defs>
</svg>
