<svg width="300" height="300" viewBox="0 0 300 300" fill="none" xmlns="http://www.w3.org/2000/svg">
<circle cx="197.5" cy="114.5" r="66.5" fill="#F6F6F6"/>
<path d="M203.666 237.914C205.68 241.214 204.648 245.544 201.226 247.344C188.874 253.844 175.377 257.945 161.451 259.402C145.202 261.103 128.777 259.163 113.371 253.722C97.965 248.282 83.9644 239.477 72.3864 227.949C60.8085 216.421 51.9439 202.459 46.4369 187.076C40.9299 171.694 38.9186 155.278 40.5493 139.021C42.18 122.764 47.4117 107.075 55.8642 93.0926C64.3167 79.1105 75.7778 67.1868 89.4148 58.188C101.101 50.4764 114.134 45.0787 127.805 42.2623C131.592 41.4823 135.138 44.1725 135.675 48.0009L139.627 76.1395C140.165 79.9679 137.484 83.4713 133.731 84.4019C126.291 86.2471 119.202 89.349 112.776 93.5896C104.397 99.1186 97.3553 106.445 92.1619 115.035C86.9686 123.626 83.7542 133.266 82.7523 143.254C81.7504 153.243 82.9861 163.329 86.3697 172.78C89.7533 182.231 95.1997 190.81 102.313 197.893C109.427 204.976 118.029 210.385 127.495 213.728C136.96 217.071 147.052 218.263 157.036 217.218C164.693 216.416 172.14 214.314 179.061 211.018C182.551 209.356 186.847 210.362 188.861 213.661L203.666 237.914Z" fill="#E6FBE6"/>
<path d="M203.666 237.914C205.68 241.214 204.648 245.544 201.226 247.344C188.874 253.844 175.377 257.945 161.451 259.402C145.202 261.103 128.777 259.163 113.371 253.722C97.965 248.282 83.9644 239.477 72.3864 227.949C60.8085 216.421 51.9439 202.459 46.4369 187.076C40.9299 171.694 38.9186 155.278 40.5493 139.021C42.18 122.764 47.4117 107.075 55.8642 93.0926C64.3167 79.1105 75.7778 67.1868 89.4148 58.188C101.101 50.4764 114.134 45.0787 127.805 42.2623C131.592 41.4823 135.138 44.1725 135.675 48.0009L139.627 76.1395C140.165 79.9679 137.484 83.4713 133.731 84.4019C126.291 86.2471 119.202 89.349 112.776 93.5896C104.397 99.1186 97.3553 106.445 92.1619 115.035C86.9686 123.626 83.7542 133.266 82.7523 143.254C81.7504 153.243 82.9861 163.329 86.3697 172.78C89.7533 182.231 95.1997 190.81 102.313 197.893C109.427 204.976 118.029 210.385 127.495 213.728C136.96 217.071 147.052 218.263 157.036 217.218C164.693 216.416 172.14 214.314 179.061 211.018C182.551 209.356 186.847 210.362 188.861 213.661L203.666 237.914Z" fill="url(#paint0_linear)"/>
<defs>
<linearGradient id="paint0_linear" x1="108.019" y1="0.208008" x2="256.261" y2="136.256" gradientUnits="userSpaceOnUse">
<stop stop-color="white"/>
<stop offset="1" stop-color="#D7F0D6"/>
</linearGradient>
</defs>
</svg>
