<svg width="300" height="300" viewBox="0 0 300 300" fill="none" xmlns="http://www.w3.org/2000/svg">
<circle cx="83.9995" cy="128" r="66" fill="#F6F6F6"/>
<path d="M149.557 47.0008C149.54 43.1348 152.664 39.9641 156.523 40.1934C170.457 41.0211 184.129 44.4951 196.8 50.452C211.586 57.4032 224.637 67.561 235.007 80.1872C245.376 92.8134 252.803 107.591 256.747 123.446C260.691 139.302 261.053 155.836 257.808 171.849C254.563 187.862 247.791 202.951 237.985 216.02C228.179 229.088 215.585 239.808 201.118 247.401C186.65 254.994 170.674 259.268 154.348 259.914C140.358 260.467 126.412 258.344 113.255 253.681C109.611 252.39 107.969 248.253 109.489 244.699L120.665 218.574C122.185 215.02 126.292 213.409 129.985 214.553C137.307 216.824 144.978 217.837 152.671 217.532C162.702 217.135 172.518 214.509 181.407 209.844C190.296 205.179 198.034 198.593 204.059 190.563C210.084 182.534 214.244 173.263 216.238 163.424C218.232 153.586 218.01 143.427 215.586 133.685C213.163 123.943 208.6 114.864 202.229 107.106C195.858 99.3485 187.839 93.1074 178.754 88.8365C171.786 85.5607 164.326 83.507 156.698 82.7473C152.851 82.3642 149.695 79.2812 149.679 75.4153L149.557 47.0008Z" fill="#E6FBE6"/>
<path d="M149.557 47.0008C149.54 43.1348 152.664 39.9641 156.523 40.1934C170.457 41.0211 184.129 44.4951 196.8 50.452C211.586 57.4032 224.637 67.561 235.007 80.1872C245.376 92.8134 252.803 107.591 256.747 123.446C260.691 139.302 261.053 155.836 257.808 171.849C254.563 187.862 247.791 202.951 237.985 216.02C228.179 229.088 215.585 239.808 201.118 247.401C186.65 254.994 170.674 259.268 154.348 259.914C140.358 260.467 126.412 258.344 113.255 253.681C109.611 252.39 107.969 248.253 109.489 244.699L120.665 218.574C122.185 215.02 126.292 213.409 129.985 214.553C137.307 216.824 144.978 217.837 152.671 217.532C162.702 217.135 172.518 214.509 181.407 209.844C190.296 205.179 198.034 198.593 204.059 190.563C210.084 182.534 214.244 173.263 216.238 163.424C218.232 153.586 218.01 143.427 215.586 133.685C213.163 123.943 208.6 114.864 202.229 107.106C195.858 99.3485 187.839 93.1074 178.754 88.8365C171.786 85.5607 164.326 83.507 156.698 82.7473C152.851 82.3642 149.695 79.2812 149.679 75.4153L149.557 47.0008Z" fill="url(#paint0_linear)"/>
<defs>
<linearGradient id="paint0_linear" x1="108.431" y1="299.906" x2="51.9542" y2="106.788" gradientUnits="userSpaceOnUse">
<stop stop-color="white"/>
<stop offset="1" stop-color="#D7F0D6"/>
</linearGradient>
</defs>
</svg>
