<svg width="279" height="279" viewBox="0 0 279 279" fill="none" xmlns="http://www.w3.org/2000/svg">
<circle cx="163.5" cy="114.5" r="56.5" fill="#F6F6F6"/>
<path d="M158.993 38.3179C159.726 34.5221 163.406 32.0177 167.147 32.9912C180.656 36.5063 193.394 42.5664 204.669 50.8682C217.825 60.5558 228.659 73.0525 236.382 87.4504C244.105 101.848 248.524 117.786 249.317 134.105C250.11 150.424 247.258 166.715 240.968 181.795C234.678 196.874 225.108 210.362 212.953 221.28C200.798 232.198 186.364 240.272 170.698 244.913C155.033 249.555 138.531 250.649 122.39 248.116C108.558 245.945 95.2892 241.157 83.2868 234.03C79.9626 232.056 79.1537 227.679 81.3348 224.488L97.3662 201.027C99.5474 197.835 103.889 197.051 107.289 198.891C114.031 202.538 121.36 205.02 128.967 206.214C138.884 207.771 149.023 207.099 158.648 204.246C168.273 201.394 177.142 196.434 184.61 189.726C192.078 183.018 197.958 174.73 201.823 165.465C205.687 156.201 207.44 146.191 206.952 136.165C206.465 126.138 203.75 116.346 199.005 107.499C194.26 98.6532 187.603 90.9751 179.52 85.0229C173.32 80.4577 166.4 76.9958 159.064 74.7707C155.365 73.6486 152.867 70.0121 153.601 66.2163L158.993 38.3179Z" fill="#E6FBE6"/>
<path d="M158.993 38.3179C159.726 34.5221 163.406 32.0177 167.147 32.9912C180.656 36.5063 193.394 42.5664 204.669 50.8682C217.825 60.5558 228.659 73.0525 236.382 87.4504C244.105 101.848 248.524 117.786 249.317 134.105C250.11 150.424 247.258 166.715 240.968 181.795C234.678 196.874 225.108 210.362 212.953 221.28C200.798 232.198 186.364 240.272 170.698 244.913C155.033 249.555 138.531 250.649 122.39 248.116C108.558 245.945 95.2892 241.157 83.2868 234.03C79.9626 232.056 79.1537 227.679 81.3348 224.488L97.3662 201.027C99.5474 197.835 103.889 197.051 107.289 198.891C114.031 202.538 121.36 205.02 128.967 206.214C138.884 207.771 149.023 207.099 158.648 204.246C168.273 201.394 177.142 196.434 184.61 189.726C192.078 183.018 197.958 174.73 201.823 165.465C205.687 156.201 207.44 146.191 206.952 136.165C206.465 126.138 203.75 116.346 199.005 107.499C194.26 98.6532 187.603 90.9751 179.52 85.0229C173.32 80.4577 166.4 76.9958 159.064 74.7707C155.365 73.6486 152.867 70.0121 153.601 66.2163L158.993 38.3179Z" fill="url(#paint0_linear)"/>
<defs>
<linearGradient id="paint0_linear" x1="69.5867" y1="278.441" x2="51.6464" y2="78.0352" gradientUnits="userSpaceOnUse">
<stop stop-color="white"/>
<stop offset="1" stop-color="#D7F0D6"/>
</linearGradient>
</defs>
</svg>
