<svg width="276" height="276" viewBox="0 0 276 276" fill="none" xmlns="http://www.w3.org/2000/svg">
<circle cx="96.5" cy="122.5" r="73.5" fill="#F6F6F6"/>
<path d="M212.459 66.8315C215.253 64.1603 219.703 64.2467 222.191 67.2056C231.175 77.8893 238.057 90.2026 242.449 103.497C247.574 119.011 249.178 135.472 247.146 151.684C245.113 167.895 239.495 183.45 230.699 197.219C221.903 210.988 210.151 222.624 196.295 231.283C182.44 239.942 166.829 245.405 150.599 247.276C134.368 249.147 117.924 247.379 102.461 242.101C86.999 236.822 72.9068 228.165 61.2086 216.759C51.1837 206.985 43.1327 195.402 37.4674 182.645C35.8983 179.111 37.7711 175.074 41.397 173.732L68.0471 163.875C71.673 162.534 75.6673 164.407 77.3762 167.874C80.7645 174.75 85.3058 181.016 90.8186 186.391C98.0061 193.399 106.665 198.717 116.165 201.961C125.665 205.204 135.768 206.29 145.741 205.141C155.713 203.991 165.304 200.634 173.817 195.314C182.33 189.994 189.551 182.845 194.956 174.385C200.36 165.925 203.812 156.368 205.061 146.407C206.309 136.447 205.324 126.333 202.175 116.801C199.76 109.49 196.119 102.662 191.424 96.6031C189.056 93.5472 189.123 89.1361 191.918 86.4649L212.459 66.8315Z" fill="#E6FBE6"/>
<path d="M212.459 66.8315C215.253 64.1603 219.703 64.2467 222.191 67.2056C231.175 77.8893 238.057 90.2026 242.449 103.497C247.574 119.011 249.178 135.472 247.146 151.684C245.113 167.895 239.495 183.45 230.699 197.219C221.903 210.988 210.151 222.624 196.295 231.283C182.44 239.942 166.829 245.405 150.599 247.276C134.368 249.147 117.924 247.379 102.461 242.101C86.999 236.822 72.9068 228.165 61.2086 216.759C51.1837 206.985 43.1327 195.402 37.4674 182.645C35.8983 179.111 37.7711 175.074 41.397 173.732L68.0471 163.875C71.673 162.534 75.6673 164.407 77.3762 167.874C80.7645 174.75 85.3058 181.016 90.8186 186.391C98.0061 193.399 106.665 198.717 116.165 201.961C125.665 205.204 135.768 206.29 145.741 205.141C155.713 203.991 165.304 200.634 173.817 195.314C182.33 189.994 189.551 182.845 194.956 174.385C200.36 165.925 203.812 156.368 205.061 146.407C206.309 136.447 205.324 126.333 202.175 116.801C199.76 109.49 196.119 102.662 191.424 96.6031C189.056 93.5472 189.123 89.1361 191.918 86.4649L212.459 66.8315Z" fill="url(#paint0_linear)"/>
<defs>
<linearGradient id="paint0_linear" x1="0.595703" y1="210.938" x2="101.927" y2="37.1094" gradientUnits="userSpaceOnUse">
<stop stop-color="white"/>
<stop offset="1" stop-color="#D7F0D6"/>
</linearGradient>
</defs>
</svg>
