<svg width="14" height="13" viewBox="0 0 14 13" fill="none" xmlns="http://www.w3.org/2000/svg">
<path fill-rule="evenodd" clip-rule="evenodd" d="M3.44444 0.442678C3.44444 0.83833 3.26178 0.892365 1.72222 0.951374L0 1.01739V7.0087V13H7H14V7.0087V1.01739L12.9444 0.948435C12.0702 0.891461 11.8889 0.803965 11.8889 0.439739C11.8889 0.0366261 11.722 0 9.88889 0C8.03711 0 7.88889 0.0334609 7.88889 0.452174C7.88889 0.70087 7.78889 0.904348 7.66667 0.904348C7.54444 0.904348 7.44444 0.70087 7.44444 0.452174C7.44444 0.100383 7.29622 0 6.77778 0C6.25933 0 6.11111 0.100383 6.11111 0.452174C6.11111 0.70087 6.01111 0.904348 5.88889 0.904348C5.76667 0.904348 5.66667 0.70087 5.66667 0.452174C5.66667 0.0603652 5.51844 0 4.55556 0C3.60044 0 3.44444 0.0621739 3.44444 0.442678ZM5.22222 1.13043C5.22222 1.73341 5.14822 1.8087 4.55556 1.8087C3.96289 1.8087 3.88889 1.73341 3.88889 1.13043C3.88889 0.527461 3.96289 0.452174 4.55556 0.452174C5.14822 0.452174 5.22222 0.527461 5.22222 1.13043ZM7 1.13043C7 1.50348 6.9 1.8087 6.77778 1.8087C6.65556 1.8087 6.55556 1.50348 6.55556 1.13043C6.55556 0.757391 6.65556 0.452174 6.77778 0.452174C6.9 0.452174 7 0.757391 7 1.13043ZM11.4444 1.13043V1.8087H9.88889H8.33333V1.13043V0.452174H9.88889H11.4444V1.13043ZM3.44444 1.8087C3.44444 2.2005 3.59267 2.26087 4.55556 2.26087C5.51844 2.26087 5.66667 2.2005 5.66667 1.8087C5.66667 1.56 5.76667 1.35652 5.88889 1.35652C6.01111 1.35652 6.11111 1.56 6.11111 1.8087C6.11111 2.16049 6.25933 2.26087 6.77778 2.26087C7.29622 2.26087 7.44444 2.16049 7.44444 1.8087C7.44444 1.56 7.54444 1.35652 7.66667 1.35652C7.78889 1.35652 7.88889 1.56 7.88889 1.8087C7.88889 2.22741 8.03711 2.26087 9.88889 2.26087C11.7602 2.26087 11.8889 2.23103 11.8889 1.79513C11.8889 1.39496 12.0067 1.33911 12.7222 1.39948L13.5556 1.46957V7.0087V12.5478H7H0.444444L0.384667 7.23953C0.351778 4.31984 0.373556 1.80191 0.433333 1.64388C0.505556 1.45216 1.02422 1.35652 1.99311 1.35652C3.29622 1.35652 3.44444 1.40264 3.44444 1.8087ZM0.777778 2.26087C0.777778 2.56224 0.926 2.71304 1.22222 2.71304C1.51844 2.71304 1.66667 2.56224 1.66667 2.26087C1.66667 1.9595 1.51844 1.8087 1.22222 1.8087C0.926 1.8087 0.777778 1.9595 0.777778 2.26087ZM12.3333 2.26087C12.3333 2.56224 12.4816 2.71304 12.7778 2.71304C13.074 2.71304 13.2222 2.56224 13.2222 2.26087C13.2222 1.9595 13.074 1.8087 12.7778 1.8087C12.4816 1.8087 12.3333 1.9595 12.3333 2.26087ZM1.66667 5.65217V7.68696H2.77778H3.88889V5.65217V3.61739H2.77778H1.66667V5.65217ZM4.77778 3.84348C4.77778 3.96783 4.97778 4.06957 5.22222 4.06957C5.46667 4.06957 5.66667 3.96783 5.66667 3.84348C5.66667 3.71913 5.46667 3.61739 5.22222 3.61739C4.97778 3.61739 4.77778 3.71913 4.77778 3.84348ZM6.11111 3.84348C6.11111 3.96783 6.31111 4.06957 6.55556 4.06957C6.8 4.06957 7 3.96783 7 3.84348C7 3.71913 6.8 3.61739 6.55556 3.61739C6.31111 3.61739 6.11111 3.71913 6.11111 3.84348ZM7.88889 5.65217V7.68696H9.88889H11.8889V5.65217V3.61739H9.88889H7.88889V5.65217ZM3.44444 5.65217C3.44444 6.55652 3.34911 7.23478 3.22222 7.23478C3.09867 7.23478 3 6.63181 3 5.87826C3 5.12471 2.90133 4.52174 2.77778 4.52174C2.65422 4.52174 2.55556 5.12471 2.55556 5.87826C2.55556 6.63181 2.45689 7.23478 2.33333 7.23478C2.20644 7.23478 2.11111 6.55652 2.11111 5.65217V4.06957H2.77778H3.44444V5.65217ZM11.4444 5.65217V7.23478H9.88889H8.33333V5.65217V4.06957H9.88889H11.4444V5.65217ZM8.77778 5.65217V6.78261H9.88889H11V5.65217V4.52174H9.88889H8.77778V5.65217ZM4.77778 4.97391C4.77778 5.09826 4.97778 5.2 5.22222 5.2C5.46667 5.2 5.66667 5.09826 5.66667 4.97391C5.66667 4.84957 5.46667 4.74783 5.22222 4.74783C4.97778 4.74783 4.77778 4.84957 4.77778 4.97391ZM6.11111 4.97391C6.11111 5.09826 6.31111 5.2 6.55556 5.2C6.8 5.2 7 5.09826 7 4.97391C7 4.84957 6.8 4.74783 6.55556 4.74783C6.31111 4.74783 6.11111 4.84957 6.11111 4.97391ZM10.5556 5.65217C10.5556 6.25515 10.4816 6.33043 9.88889 6.33043C9.29622 6.33043 9.22222 6.25515 9.22222 5.65217C9.22222 5.0492 9.29622 4.97391 9.88889 4.97391C10.4816 4.97391 10.5556 5.0492 10.5556 5.65217ZM4.77778 6.10435C4.77778 6.2287 4.97778 6.33043 5.22222 6.33043C5.46667 6.33043 5.66667 6.2287 5.66667 6.10435C5.66667 5.98 5.46667 5.87826 5.22222 5.87826C4.97778 5.87826 4.77778 5.98 4.77778 6.10435ZM6.11111 6.10435C6.11111 6.2287 6.31111 6.33043 6.55556 6.33043C6.8 6.33043 7 6.2287 7 6.10435C7 5.98 6.8 5.87826 6.55556 5.87826C6.31111 5.87826 6.11111 5.98 6.11111 6.10435ZM4.77778 7.23478C4.77778 7.35913 4.97778 7.46087 5.22222 7.46087C5.46667 7.46087 5.66667 7.35913 5.66667 7.23478C5.66667 7.11044 5.46667 7.0087 5.22222 7.0087C4.97778 7.0087 4.77778 7.11044 4.77778 7.23478ZM6.11111 7.23478C6.11111 7.35913 6.31111 7.46087 6.55556 7.46087C6.8 7.46087 7 7.35913 7 7.23478C7 7.11044 6.8 7.0087 6.55556 7.0087C6.31111 7.0087 6.11111 7.11044 6.11111 7.23478ZM1.93333 9.31478C1.58956 9.66454 1.58956 10.6833 1.93333 11.033C2.08 11.1823 2.46 11.3043 2.77778 11.3043C3.51222 11.3043 3.88889 10.9211 3.88889 10.1739C3.88889 9.4267 3.51222 9.04348 2.77778 9.04348C2.46 9.04348 2.08 9.16557 1.93333 9.31478ZM3.23156 9.84609C3.46756 10.1357 3.45311 10.2621 3.14756 10.5727C2.80267 10.9238 2.75289 10.9238 2.408 10.5727C2.10244 10.2621 2.088 10.1357 2.324 9.84609C2.48133 9.65346 2.68556 9.49565 2.77778 9.49565C2.87 9.49565 3.07422 9.65346 3.23156 9.84609ZM4.77778 9.72174C4.77778 9.85988 5.81489 9.94783 7.44444 9.94783C9.074 9.94783 10.1111 9.85988 10.1111 9.72174C10.1111 9.5836 9.074 9.49565 7.44444 9.49565C5.81489 9.49565 4.77778 9.5836 4.77778 9.72174ZM10.5556 9.72174C10.5556 9.84609 10.8556 9.94783 11.2222 9.94783C11.5889 9.94783 11.8889 9.84609 11.8889 9.72174C11.8889 9.59739 11.5889 9.49565 11.2222 9.49565C10.8556 9.49565 10.5556 9.59739 10.5556 9.72174ZM4.77778 10.6261C4.77778 10.7674 6.11111 10.8522 8.33333 10.8522C10.5556 10.8522 11.8889 10.7674 11.8889 10.6261C11.8889 10.4848 10.5556 10.4 8.33333 10.4C6.11111 10.4 4.77778 10.4848 4.77778 10.6261ZM0.777778 11.7565C0.777778 12.0579 0.926 12.2087 1.22222 12.2087C1.51844 12.2087 1.66667 12.0579 1.66667 11.7565C1.66667 11.4551 1.51844 11.3043 1.22222 11.3043C0.926 11.3043 0.777778 11.4551 0.777778 11.7565ZM12.3333 11.7565C12.3333 12.0579 12.4816 12.2087 12.7778 12.2087C13.074 12.2087 13.2222 12.0579 13.2222 11.7565C13.2222 11.4551 13.074 11.3043 12.7778 11.3043C12.4816 11.3043 12.3333 11.4551 12.3333 11.7565Z" fill="#4A8748"/>
</svg>
