<svg width="16" height="16" viewBox="0 0 16 16" fill="none" xmlns="http://www.w3.org/2000/svg">
<path fill-rule="evenodd" clip-rule="evenodd" d="M4.36364 0.727273V1.45455H5.09091H5.81818V0.727273V0H5.09091H4.36364V0.727273ZM7.27273 0.727273V1.45455H8H8.72727V0.727273V0H8H7.27273V0.727273ZM10.1818 0.727273V1.45455H10.9091H11.6364V0.727273V0H10.9091H10.1818V0.727273ZM2.62818 2.62818L2.18182 3.07436V8V12.9256L2.62818 13.3718L3.07436 13.8182H8H12.9256L13.3718 13.3718L13.8182 12.9256V8V3.07436L13.3718 2.62818L12.9256 2.18182H8H3.07436L2.62818 2.62818ZM12.3636 8V12.3636H8H3.63636V8V3.63636H8H12.3636V8ZM0 5.09091V5.81818H0.727273H1.45455V5.09091V4.36364H0.727273H0V5.09091ZM14.5455 5.09091V5.81818H15.2727H16V5.09091V4.36364H15.2727H14.5455V5.09091ZM5.81818 8V10.1818H8H10.1818V8V5.81818H8H5.81818V8ZM0 8V8.72727H0.727273H1.45455V8V7.27273H0.727273H0V8ZM8.72727 8V8.72727H8H7.27273V8V7.27273H8H8.72727V8ZM14.5455 8V8.72727H15.2727H16V8V7.27273H15.2727H14.5455V8ZM0 10.9091V11.6364H0.727273H1.45455V10.9091V10.1818H0.727273H0V10.9091ZM14.5455 10.9091V11.6364H15.2727H16V10.9091V10.1818H15.2727H14.5455V10.9091ZM4.36364 15.2727V16H5.09091H5.81818V15.2727V14.5455H5.09091H4.36364V15.2727ZM7.27273 15.2727V16H8H8.72727V15.2727V14.5455H8H7.27273V15.2727ZM10.1818 15.2727V16H10.9091H11.6364V15.2727V14.5455H10.9091H10.1818V15.2727Z" fill="#4A8748"/>
</svg>
