<svg width="17" height="10" viewBox="0 0 17 10" fill="none" xmlns="http://www.w3.org/2000/svg">
<path fill-rule="evenodd" clip-rule="evenodd" d="M0.139681 0.169192C0.0644334 0.29655 0.001727 2.13401 0.000125989 4.25217C-0.00254237 7.84079 0.0329468 8.11366 0.519122 8.2466C0.884687 8.34659 1.04079 8.63035 1.04079 9.1948V10H5.31016H9.57953V9.30177C9.57953 8.91774 9.69961 8.60354 9.84637 8.60354C9.99313 8.60354 10.1132 8.91774 10.1132 9.30177V10H13.0484H15.9836V9.1948C15.9836 8.62728 16.1394 8.34659 16.5114 8.24493C17.0098 8.10835 17.0357 7.8785 16.9784 4.09269L16.9175 0.0851255L8.59704 0.0113923C4.02081 -0.029105 0.214929 0.0418351 0.139681 0.169192ZM16.4695 1.74217C16.5167 2.34628 16.4025 3.13947 16.2155 3.50478C15.9492 4.02594 15.9452 4.2854 16.1965 4.70685C16.3729 5.00262 16.5173 5.76062 16.5173 6.39154C16.5173 7.30371 16.4079 7.56848 15.9836 7.68467C15.6055 7.78828 15.4499 8.06562 15.4499 8.63622V9.44141H13.066H10.6824L10.5978 8.67336C10.5308 8.06395 10.3758 7.90531 9.84637 7.90531C9.31696 7.90531 9.16193 8.06395 9.09496 8.67336L9.01037 9.44141H5.29255H1.57446V8.63622C1.57446 8.06562 1.41889 7.78828 1.04079 7.68467C0.616517 7.56848 0.507114 7.30371 0.507114 6.39154C0.507114 5.76062 0.656008 4.9948 0.838257 4.68954C1.10162 4.24798 1.10162 4.02175 0.838257 3.58019C0.486301 2.99032 0.384103 1.00539 0.688829 0.686162C0.788893 0.581428 4.36129 0.5292 8.62719 0.569698L16.3838 0.64371L16.4695 1.74217ZM1.57446 3.57628V5.53132H2.90864H4.24281V3.57628V1.62123H2.90864H1.57446V3.57628ZM5.31016 3.57628V5.53132H6.64434H7.97852V3.57628V1.62123H6.64434H5.31016V3.57628ZM9.04586 3.57628V5.53132H10.38H11.7142V3.57628V1.62123H10.38H9.04586V3.57628ZM12.7816 3.57628V5.53132H14.1157H15.4499V3.57628V1.62123H14.1157H12.7816V3.57628ZM3.70914 3.57628C3.70914 4.94174 3.69127 4.97274 2.90864 4.97274C2.12601 4.97274 2.10813 4.94174 2.10813 3.57628C2.10813 2.21082 2.12601 2.17982 2.90864 2.17982C3.69127 2.17982 3.70914 2.21082 3.70914 3.57628ZM7.44484 3.57628C7.44484 4.94174 7.42697 4.97274 6.64434 4.97274C5.86171 4.97274 5.84383 4.94174 5.84383 3.57628C5.84383 2.21082 5.86171 2.17982 6.64434 2.17982C7.42697 2.17982 7.44484 2.21082 7.44484 3.57628ZM11.1805 3.57628C11.1805 4.94174 11.1627 4.97274 10.38 4.97274C9.59741 4.97274 9.57953 4.94174 9.57953 3.57628C9.57953 2.21082 9.59741 2.17982 10.38 2.17982C11.1627 2.17982 11.1805 2.21082 11.1805 3.57628ZM14.9162 3.57628C14.9162 4.94174 14.8984 4.97274 14.1157 4.97274C13.3331 4.97274 13.3152 4.94174 13.3152 3.57628C13.3152 2.21082 13.3331 2.17982 14.1157 2.17982C14.8984 2.17982 14.9162 2.21082 14.9162 3.57628ZM1.04079 6.92778C1.04079 7.10625 3.35345 7.20708 7.44484 7.20708C11.5362 7.20708 13.8489 7.10625 13.8489 6.92778C13.8489 6.74932 11.5362 6.64849 7.44484 6.64849C3.35345 6.64849 1.04079 6.74932 1.04079 6.92778ZM14.3826 6.92778C14.3826 7.0814 14.7428 7.20708 15.1831 7.20708C15.6234 7.20708 15.9836 7.0814 15.9836 6.92778C15.9836 6.77417 15.6234 6.64849 15.1831 6.64849C14.7428 6.64849 14.3826 6.77417 14.3826 6.92778ZM2.37496 8.32425C2.37496 8.63147 2.49504 8.88283 2.6418 8.88283C2.78856 8.88283 2.90864 8.63147 2.90864 8.32425C2.90864 8.01702 2.78856 7.76566 2.6418 7.76566C2.49504 7.76566 2.37496 8.01702 2.37496 8.32425ZM3.70914 8.32425C3.70914 8.63147 3.82922 8.88283 3.97598 8.88283C4.12274 8.88283 4.24281 8.63147 4.24281 8.32425C4.24281 8.01702 4.12274 7.76566 3.97598 7.76566C3.82922 7.76566 3.70914 8.01702 3.70914 8.32425ZM5.04332 8.32425C5.04332 8.63147 5.1634 8.88283 5.31016 8.88283C5.45692 8.88283 5.57699 8.63147 5.57699 8.32425C5.57699 8.01702 5.45692 7.76566 5.31016 7.76566C5.1634 7.76566 5.04332 8.01702 5.04332 8.32425ZM6.3775 8.32425C6.3775 8.63147 6.49758 8.88283 6.64434 8.88283C6.7911 8.88283 6.91117 8.63147 6.91117 8.32425C6.91117 8.01702 6.7911 7.76566 6.64434 7.76566C6.49758 7.76566 6.3775 8.01702 6.3775 8.32425ZM7.71168 8.32425C7.71168 8.63147 7.83176 8.88283 7.97852 8.88283C8.12528 8.88283 8.24535 8.63147 8.24535 8.32425C8.24535 8.01702 8.12528 7.76566 7.97852 7.76566C7.83176 7.76566 7.71168 8.01702 7.71168 8.32425ZM11.4474 8.32425C11.4474 8.63147 11.5675 8.88283 11.7142 8.88283C11.861 8.88283 11.9811 8.63147 11.9811 8.32425C11.9811 8.01702 11.861 7.76566 11.7142 7.76566C11.5675 7.76566 11.4474 8.01702 11.4474 8.32425ZM12.7816 8.32425C12.7816 8.63147 12.9016 8.88283 13.0484 8.88283C13.1952 8.88283 13.3152 8.63147 13.3152 8.32425C13.3152 8.01702 13.1952 7.76566 13.0484 7.76566C12.9016 7.76566 12.7816 8.01702 12.7816 8.32425ZM14.1157 8.32425C14.1157 8.63147 14.2358 8.88283 14.3826 8.88283C14.5293 8.88283 14.6494 8.63147 14.6494 8.32425C14.6494 8.01702 14.5293 7.76566 14.3826 7.76566C14.2358 7.76566 14.1157 8.01702 14.1157 8.32425Z" fill="#4A8748"/>
</svg>
