<svg width="15" height="15" viewBox="0 0 15 15" fill="none" xmlns="http://www.w3.org/2000/svg">
<path d="M9.0625 7.5L14.1406 12.5781C14.2188 12.6953 14.2578 12.8125 14.2578 12.9297C14.2578 13.0859 14.2188 13.1641 14.1406 13.2422L13.2422 14.1406C13.1641 14.2188 13.0469 14.2578 12.9297 14.2578C12.7734 14.2578 12.6562 14.2188 12.5781 14.1406L7.5 9.0625L2.42188 14.1406C2.30469 14.2188 2.1875 14.2578 2.07031 14.2578C1.91406 14.2578 1.83594 14.2188 1.75781 14.1406L0.859375 13.2422C0.78125 13.1641 0.742188 13.0859 0.742188 12.9297C0.742188 12.8125 0.78125 12.6953 0.859375 12.5781L5.9375 7.5L0.859375 2.42188C0.78125 2.34375 0.742188 2.22656 0.742188 2.07031C0.742188 1.95312 0.78125 1.83594 0.859375 1.75781L1.75781 0.859375C1.83594 0.78125 1.91406 0.742188 2.07031 0.742188C2.1875 0.742188 2.30469 0.78125 2.42188 0.859375L7.5 5.9375L12.5781 0.859375C12.6562 0.78125 12.7734 0.742188 12.9297 0.742188C13.0469 0.742188 13.1641 0.78125 13.2422 0.859375L14.1406 1.75781C14.2188 1.83594 14.2578 1.95312 14.2578 2.07031C14.2578 2.22656 14.2188 2.34375 14.1406 2.42188L9.0625 7.5Z" fill="#E1E1E1"/>
</svg>
