<svg width="17" height="26" viewBox="0 0 17 26" fill="none" xmlns="http://www.w3.org/2000/svg">
<path d="M8.51186 0.512897C8.4154 0.514486 8.32128 0.542874 8.24003 0.594889C8.15878 0.646903 8.0936 0.720492 8.05178 0.807428L0.808344 12.1906C0.7964 12.2082 0.785546 12.2265 0.775844 12.2454C0.775505 12.2457 0.775166 12.2461 0.774828 12.2464C0.767298 12.2616 0.760519 12.2772 0.754515 12.2931C0.742034 12.3256 0.732847 12.3593 0.727094 12.3937C0.721274 12.4279 0.718892 12.4626 0.719984 12.4973C0.719984 12.4976 0.719984 12.4979 0.719984 12.4983C0.720508 12.5153 0.721863 12.5322 0.724046 12.5491C0.72469 12.5525 0.725367 12.5558 0.726078 12.5592C0.730248 12.585 0.736359 12.6105 0.744359 12.6354C0.745646 12.6402 0.747001 12.6449 0.748422 12.6496C0.748422 12.65 0.748422 12.6503 0.748422 12.6506C0.754062 12.6669 0.760502 12.6828 0.767719 12.6984C0.767718 12.6987 0.767718 12.699 0.767719 12.6994C0.775109 12.7147 0.783244 12.7296 0.792094 12.7441C0.792093 12.7444 0.792093 12.7447 0.792094 12.7451C0.800866 12.7598 0.810357 12.774 0.820531 12.7877C0.825469 12.7939 0.830549 12.8 0.835765 12.806C0.841651 12.8136 0.847747 12.8211 0.854046 12.8284C0.86529 12.8411 0.877154 12.8533 0.889594 12.8649C0.889932 12.8653 0.89027 12.8656 0.890609 12.8659C0.915962 12.8889 0.943517 12.9093 0.972875 12.9269C0.973213 12.9272 0.973552 12.9276 0.97389 12.9279C0.976587 12.9293 0.979295 12.9306 0.982015 12.932C0.982354 12.9323 0.982692 12.9326 0.983031 12.933L8.19702 17.0554C8.28835 17.1275 8.40124 17.1669 8.5176 17.1673C8.63397 17.1676 8.7471 17.129 8.83889 17.0574L16.0468 12.9381C16.0505 12.9361 16.0543 12.934 16.058 12.932C16.0694 12.9253 16.0806 12.9182 16.0915 12.9106C16.0949 12.9083 16.0983 12.9059 16.1016 12.9035C16.104 12.9015 16.1064 12.8995 16.1087 12.8974C16.1195 12.89 16.13 12.8822 16.1402 12.8741C16.1409 12.8734 16.1416 12.8727 16.1423 12.872C16.1443 12.8704 16.1463 12.8687 16.1483 12.867C16.1593 12.8569 16.1698 12.8464 16.1798 12.8355C16.1917 12.8228 16.2028 12.8096 16.2133 12.7959C16.2235 12.7825 16.233 12.7686 16.2418 12.7542C16.2421 12.7539 16.2425 12.7535 16.2428 12.7532C16.2431 12.7522 16.2435 12.7512 16.2438 12.7502C16.2526 12.7367 16.2607 12.7228 16.2682 12.7085C16.2682 12.7082 16.2682 12.7078 16.2682 12.7075C16.2741 12.6955 16.2795 12.6833 16.2844 12.6709C16.2858 12.6672 16.2872 12.6635 16.2885 12.6598C16.2899 12.6557 16.2913 12.6517 16.2926 12.6476C16.2964 12.6359 16.2998 12.624 16.3027 12.612C16.3031 12.6114 16.3034 12.6107 16.3037 12.61C16.3041 12.609 16.3044 12.608 16.3048 12.607C16.3085 12.5912 16.3116 12.5753 16.3139 12.5592C16.3161 12.5461 16.3178 12.5329 16.319 12.5196C16.319 12.5183 16.319 12.5169 16.319 12.5156C16.32 12.4997 16.3204 12.4837 16.32 12.4678C16.3196 12.4576 16.3189 12.4475 16.318 12.4373C16.3173 12.4265 16.3163 12.4156 16.3149 12.4048C16.3149 12.4045 16.3149 12.4042 16.3149 12.4038C16.3146 12.4021 16.3142 12.4004 16.3139 12.3988C16.3115 12.3841 16.3084 12.3695 16.3048 12.3551C16.3048 12.3544 16.3048 12.3537 16.3048 12.3531C16.3015 12.34 16.2978 12.3272 16.2936 12.3145C16.2923 12.3107 16.2909 12.307 16.2895 12.3033C16.2879 12.2992 16.2862 12.2951 16.2844 12.2911C16.2801 12.2794 16.2754 12.2679 16.2702 12.2566C16.2699 12.2562 16.2695 12.2559 16.2692 12.2556C16.2689 12.2545 16.2685 12.2535 16.2682 12.2525C16.2607 12.2379 16.2526 12.2237 16.2438 12.2098C16.2428 12.2082 16.2418 12.2065 16.2408 12.2048C16.2401 12.2034 16.2394 12.2021 16.2387 12.2007L16.2225 12.1763L8.98616 0.804381C8.94285 0.715844 8.87527 0.641437 8.7913 0.589831C8.70732 0.538224 8.61041 0.511543 8.51186 0.512897ZM7.99999 2.82649V9.01672L2.58366 11.3374L7.99999 2.82649ZM9.03998 2.82649L14.4563 11.3374L9.03998 9.01672V2.82649ZM7.99999 10.1481V15.7432L2.40592 12.547L7.99999 10.1481ZM9.03998 10.1481L14.634 12.547L9.03998 15.7432V10.1481ZM15.804 14.559C15.7121 14.5585 15.6217 14.5823 15.542 14.6281L8.51999 18.6408L1.49795 14.6281C1.42234 14.585 1.33714 14.5616 1.25014 14.56C1.15306 14.5581 1.05739 14.5834 0.973954 14.6331C0.890522 14.6828 0.822663 14.7548 0.778059 14.8411C0.733455 14.9273 0.713888 15.0243 0.721574 15.1211C0.729259 15.2179 0.76389 15.3106 0.821546 15.3888L8.06702 25.222C8.11228 25.3021 8.17798 25.3688 8.25742 25.4152C8.33686 25.4616 8.42718 25.4861 8.51918 25.4862C8.61118 25.4863 8.70156 25.462 8.7811 25.4158C8.86064 25.3695 8.92649 25.303 8.97194 25.2231L16.2184 15.3888C16.2756 15.3116 16.3103 15.2201 16.3187 15.1244C16.3271 15.0287 16.3088 14.9326 16.2659 14.8467C16.223 14.7608 16.1571 14.6884 16.0756 14.6376C15.9941 14.5868 15.9001 14.5596 15.804 14.559ZM3.11889 16.7527L7.99999 19.5427V23.3777L3.11889 16.7527ZM13.9211 16.7527L9.03998 23.3777V19.5427L13.9211 16.7527Z" fill="#691D66"/>
</svg>
