<svg width="28" height="17" viewBox="0 0 28 17" fill="none" xmlns="http://www.w3.org/2000/svg">
<path fill-rule="evenodd" clip-rule="evenodd" d="M0 8.5V17H14H28V8.5V0H14H0V8.5ZM24.171 2.75C24.352 3.16267 24.8377 3.648 25.25 3.829C25.9727 4.146 26 4.317 26 8.5C26 12.683 25.9727 12.854 25.25 13.171C24.8377 13.352 24.352 13.8377 24.171 14.25L23.842 15H14H4.158L3.829 14.25C3.648 13.8377 3.16267 13.352 2.75 13.171C2.02733 12.854 2 12.683 2 8.5C2 4.317 2.02733 4.146 2.75 3.829C3.16267 3.648 3.648 3.16267 3.829 2.75L4.158 2H14H23.842L24.171 2.75ZM12.7403 4.80433C12.539 5.247 12.0647 5.707 11.687 5.827C11.1913 5.98433 11 6.32767 11 7.06033C11 7.999 11.0757 8.06467 12 7.929L13 7.782V10.391V13H14H15V8.5V4H14.0537C13.3763 4 13.0027 4.229 12.7403 4.80433ZM5.4 7.4C4.88567 7.91433 4.88567 9.08567 5.4 9.6C6.335 10.535 8 9.83067 8 8.5C8 7.60667 7.39333 7 6.5 7C6.115 7 5.62 7.18 5.4 7.4ZM20.4 7.4C19.8857 7.91433 19.8857 9.08567 20.4 9.6C20.9143 10.1143 22.0857 10.1143 22.6 9.6C23.535 8.665 22.8307 7 21.5 7C21.115 7 20.62 7.18 20.4 7.4Z" fill="#36AF33"/>
</svg>
