<svg width="24" height="24" viewBox="0 0 24 24" fill="none" xmlns="http://www.w3.org/2000/svg">
<path d="M12 0C5.38443 0 0 5.38443 0 12C0 18.6156 5.38443 24 12 24C18.6156 24 24 18.6156 24 12C24 5.38443 18.6156 0 12 0ZM12 2C17.5347 2 22 6.46531 22 12C22 17.5347 17.5347 22 12 22C6.46531 22 2 17.5347 2 12C2 6.46531 6.46531 2 12 2ZM10 4V6H8V18H10V20H11V18H12V20H13V17.9805C14.2095 17.9306 15.1722 17.6492 15.8613 17.1133C16.6203 16.5223 17 15.6539 17 14.5059C17 13.8409 16.82 13.256 16.459 12.75C16.107 12.256 15.5788 11.9334 14.8828 11.7754C15.6218 11.2264 16 10.43 16 9.375V9.28711C16 8.19411 15.6035 7.37322 14.8105 6.82422C14.3272 6.48956 13.7142 6.26947 13 6.13867V4H12V6.02539C11.8332 6.01683 11.6765 6 11.5 6H11V4H10ZM10.4102 8H12C12.375 8 12.7145 8.08494 13.0645 8.33594C13.4145 8.58694 13.5898 8.974 13.5898 9.5C13.5898 9.98 13.4173 10.4267 13.0703 10.6777C12.7223 10.9277 12.375 11 12 11L10.4102 11.002V8ZM10.4102 13H12.8145C13.4305 13 13.882 13.1353 14.168 13.4043C14.454 13.6733 14.5977 14.0623 14.5977 14.5723C14.5977 15.0433 14.4298 15.3987 14.0938 15.6387C13.7577 15.8797 13.2718 16 12.6328 16H10.4102V13Z" fill="#FFC700"/>
</svg>
