<svg width="39" height="39" viewBox="0 0 39 39" fill="none" xmlns="http://www.w3.org/2000/svg">
<path d="M26 8.125C24.5062 8.125 23.0271 8.41922 21.647 8.99087C20.2669 9.56252 19.0129 10.4004 17.9567 11.4567C16.9004 12.5129 16.0625 13.7669 15.4909 15.147C14.9192 16.5271 14.625 18.0062 14.625 19.5C14.625 20.9938 14.9192 22.4729 15.4909 23.853C16.0625 25.2331 16.9004 26.4871 17.9567 27.5433C19.0129 28.5996 20.2669 29.4375 21.647 30.0091C23.0271 30.5808 24.5062 30.875 26 30.875C27.4938 30.875 28.9729 30.5808 30.353 30.0091C31.7331 29.4375 32.9871 28.5996 34.0433 27.5433C35.0996 26.4871 35.9375 25.2331 36.5091 23.853C37.0808 22.4729 37.375 20.9938 37.375 19.5C37.375 18.0062 37.0808 16.5271 36.5091 15.147C35.9375 13.7669 35.0996 12.5129 34.0433 11.4567C32.9871 10.4004 31.7331 9.56252 30.353 8.99087C28.9729 8.41922 27.4938 8.125 26 8.125Z" fill="#FF9800"/>
<path d="M13 8.125C11.5062 8.125 10.0271 8.41922 8.64698 8.99087C7.2669 9.56252 6.01293 10.4004 4.95666 11.4567C3.90039 12.5129 3.06252 13.7669 2.49087 15.147C1.91922 16.5271 1.625 18.0062 1.625 19.5C1.625 20.9938 1.91922 22.4729 2.49087 23.853C3.06252 25.2331 3.90039 26.4871 4.95666 27.5433C6.01293 28.5996 7.2669 29.4375 8.64698 30.0091C10.0271 30.5808 11.5062 30.875 13 30.875C14.4938 30.875 15.9729 30.5808 17.353 30.0091C18.7331 29.4375 19.9871 28.5996 21.0433 27.5433C22.0996 26.4871 22.9375 25.2331 23.5091 23.853C24.0808 22.4729 24.375 20.9938 24.375 19.5C24.375 18.0062 24.0808 16.5271 23.5091 15.147C22.9375 13.7669 22.0996 12.5129 21.0433 11.4567C19.9871 10.4004 18.7331 9.56252 17.353 8.99087C15.9729 8.41922 14.4938 8.125 13 8.125Z" fill="#D50000"/>
<path d="M14.625 19.5C14.625 23.3635 16.5555 26.7719 19.5 28.8275C22.4445 26.7719 24.375 23.3635 24.375 19.5C24.375 15.6366 22.4445 12.2281 19.5 10.1725C16.5555 12.2281 14.625 15.6366 14.625 19.5Z" fill="#FF3D00"/>
</svg>
