<svg width="40" height="40" viewBox="0 0 40 40" fill="none" xmlns="http://www.w3.org/2000/svg">
<path d="M29.5631 2.83831C20.0464 -2.405 8.08175 1.05906 2.83845 10.5758C-2.40486 20.0925 1.0592 32.0571 10.5759 37.3004C20.0926 42.5437 32.0572 39.0796 37.3005 29.5629C42.5438 20.0462 39.0798 8.08162 29.5631 2.83831ZM27.6644 6.28452C35.277 10.4788 38.0486 20.0515 33.8543 27.6642C29.6601 35.2769 20.0873 38.0484 12.4746 33.8542C4.86195 29.6599 2.09039 20.0871 6.28466 12.4745C10.4789 4.86181 20.0517 2.09025 27.6644 6.28452ZM25.5478 7.64971L23.7474 10.9176L20.143 8.93169L10.6939 26.082L14.2983 28.0678L12.5461 31.2482L14.7841 32.4812L16.5419 29.2908C18.2061 30.1717 19.7127 30.4618 21.0502 30.1296C22.4306 29.785 23.5796 28.7795 24.4967 27.1149C24.7255 26.6997 24.9088 26.2682 25.04 25.8262C25.1705 25.3815 25.236 24.9355 25.2343 24.4943C25.2325 24.053 25.1453 23.6217 24.98 23.196C24.8129 22.7737 24.5463 22.3752 24.1779 22.0083C24.6464 22.0508 25.0846 22.0199 25.4939 21.913C25.9057 21.8097 26.2884 21.6474 26.6413 21.4308C26.9908 21.2123 27.3061 20.9483 27.5865 20.6311C27.8703 20.3157 28.1166 19.9634 28.3322 19.5723C28.7736 18.771 29.0333 18.0068 29.1116 17.2817C29.1864 16.5548 29.0946 15.8695 28.8397 15.2192C28.5829 14.5723 28.1686 13.9668 27.5931 13.4049C27.1448 12.967 26.5848 12.563 25.9687 12.1809L27.7858 8.88277L25.5478 7.64971ZM22.017 13.7239L23.8545 14.7363C24.561 15.1255 24.9765 15.5766 25.1058 16.0881C25.235 16.5996 25.0836 17.2432 24.6554 18.0203C24.2747 18.7113 23.8171 19.1422 23.288 19.3157C22.7563 19.4899 22.146 19.3884 21.4534 19.0068L19.6528 18.0148L22.017 13.7239ZM18.264 20.5355L20.5963 21.8205C21.2407 22.1755 21.5837 22.6411 21.6189 23.2131C21.6576 23.7869 21.4756 24.4367 21.0731 25.1673C20.8948 25.4868 20.6974 25.7615 20.4796 25.9897C20.2618 26.2178 20.0216 26.3914 19.7589 26.5095C19.4946 26.6222 19.2143 26.6711 18.914 26.6494C18.613 26.6251 18.2926 26.522 17.9549 26.3359L15.7404 25.1159L18.264 20.5355Z" fill="#AFD9AE"/>
</svg>
