<svg width="14" height="14" viewBox="0 0 14 14" fill="none" xmlns="http://www.w3.org/2000/svg">
<path d="M6.99984 1.1665C3.78509 1.1665 1.1665 3.78509 1.1665 6.99984C1.1665 10.2146 3.78509 12.8332 6.99984 12.8332C10.2146 12.8332 12.8332 10.2146 12.8332 6.99984C12.8332 3.78509 10.2146 1.1665 6.99984 1.1665ZM6.99984 2.33317C9.58408 2.33317 11.6665 4.4156 11.6665 6.99984C11.6665 9.58408 9.58408 11.6665 6.99984 11.6665C4.4156 11.6665 2.33317 9.58408 2.33317 6.99984C2.33317 4.4156 4.4156 2.33317 6.99984 2.33317ZM6.4165 3.49984V7.24137L8.92074 9.74561L9.74561 8.92074L7.58317 6.7583V3.49984H6.4165Z" fill="#4A8748"/>
</svg>
