<svg width="14" height="14" viewBox="0 0 14 14" fill="none" xmlns="http://www.w3.org/2000/svg">
<g clip-path="url(#clip0)">
<path d="M2.62124 1.21191C2.50888 1.21197 2.39851 1.24146 2.30109 1.29744C2.20368 1.35342 2.12263 1.43394 2.06601 1.53098L0.940471 3.46047C0.88298 3.55881 0.852635 3.67065 0.852539 3.78456V11.5025C0.852539 12.2055 1.43585 12.7888 2.13886 12.7888H11.1431C11.8462 12.7888 12.4295 12.2055 12.4295 11.5025V3.78456C12.4294 3.67065 12.399 3.55881 12.3415 3.46047L11.216 1.53098C11.1594 1.43394 11.0783 1.35342 10.9809 1.29744C10.8835 1.24146 10.7731 1.21197 10.6608 1.21191H2.62124ZM2.99055 2.49824H10.2914L11.0414 3.78456H2.24061L2.99055 2.49824ZM2.13886 5.07089H11.1431V11.5025H2.13886V5.07089ZM4.71151 6.35721V7.64354H8.57049V6.35721H4.71151Z" fill="#4A8748"/>
</g>
<defs>
<clipPath id="clip0">
<rect width="14" height="14" fill="white"/>
</clipPath>
</defs>
</svg>
