<svg width="56" height="70" viewBox="0 0 56 70" fill="none" xmlns="http://www.w3.org/2000/svg">
<path d="M27.5 3.25C18.5251 3.25 11.25 10.5251 11.25 19.5C11.25 28.4749 18.5251 35.75 27.5 35.75C36.4749 35.75 43.75 28.4749 43.75 19.5C43.75 10.5251 36.4749 3.25 27.5 3.25ZM27.5 6.5C34.6793 6.5 40.5 12.3207 40.5 19.5C40.5 26.6793 34.6793 32.5 27.5 32.5C20.3207 32.5 14.5 26.6793 14.5 19.5C14.5 12.3207 20.3207 6.5 27.5 6.5ZM26.5129 8.3313V11.4131H23.1138V27.5869H26.5129V30.5862H28.6235V27.5774C30.1787 27.5514 31.3842 27.1607 32.2195 26.3872C33.0807 25.5877 33.5112 24.4023 33.5112 22.8325C33.5112 22.4409 33.4719 22.0557 33.3906 21.6836C33.3078 21.3098 33.1774 20.9611 33.0002 20.6426C32.8231 20.3241 32.5881 20.0468 32.2988 19.8047C32.0096 19.5658 31.6579 19.3838 31.2451 19.2651C31.601 19.1091 31.9057 18.9121 32.1592 18.6716C32.4159 18.4328 32.6281 18.1629 32.7971 17.8655C32.9629 17.5681 33.0857 17.2514 33.1621 16.9102C33.2417 16.5689 33.2795 16.2158 33.2795 15.8469C33.2795 15.0913 33.1628 14.4349 32.9304 13.8792C32.6948 13.3234 32.3552 12.8642 31.9116 12.4954C31.468 12.1297 30.9269 11.8568 30.2866 11.6797C29.7877 11.5416 29.2215 11.4725 28.6235 11.4417V8.3313H26.5129ZM26.3796 14.1331H28.1125C28.7788 14.1331 29.2593 14.2938 29.5566 14.6123C29.854 14.9308 30.001 15.4568 30.001 16.1897C30.001 16.8413 29.8417 17.3355 29.5281 17.6719C29.2128 18.0099 28.7309 18.1797 28.0776 18.1797H26.3796V14.1331ZM26.3796 20.5569H28.5791C29.1869 20.5569 29.6205 20.757 29.874 21.1567C30.1308 21.5565 30.2581 22.0991 30.2581 22.7881C30.2564 23.0903 30.2231 23.3678 30.1565 23.6196C30.0899 23.8715 29.9853 24.0928 29.8423 24.283C29.696 24.4698 29.5127 24.6169 29.2869 24.7209C29.0594 24.8233 28.7865 24.8765 28.468 24.8765H26.3796V20.5569Z" fill="#E9E2C6"/>
<path fill-rule="evenodd" clip-rule="evenodd" d="M9.90093 42.6083C11.2421 43.5105 13.6055 45.2075 15.1527 46.3784L17.9657 48.5078L19.4803 46.7236C20.928 45.0178 21.3132 44.9204 28.188 44.5202C32.1445 44.2901 37.2706 43.9354 39.5792 43.7324C43.03 43.4283 44.227 43.5902 46.3041 44.641C50.957 46.9942 56.8427 54.5957 55.8995 57.0324C55.1252 59.0334 53.133 58.0876 50.8078 54.6159C47.6236 49.8614 44.6817 47.7554 41.2743 47.7902C32.4468 47.8806 22.9158 48.7771 22.243 49.5807C20.7354 51.382 22.7181 52.2893 28.584 52.4821C34.0003 52.6604 34.1062 52.6945 34.1062 54.2448C34.1062 55.8115 34.0513 55.8273 27.8168 56.0075L21.5275 56.189L15.6999 51.8714C5.46038 44.285 5.76203 44.4551 4.61156 45.5963C3.74934 46.4505 3.73149 46.7457 4.48465 47.6454C6.21674 49.7154 20.5326 61.283 22.0861 61.8684C23.1065 62.2529 25.8264 62.2137 29.7262 61.7578C33.0571 61.3683 37.3892 61.1818 39.3541 61.343C42.4815 61.6004 43.1951 61.9285 45.0918 63.9802C46.6517 65.6676 47.2027 66.8012 47.0592 68.0291C46.7467 70.7161 44.4687 70.6415 42.8323 67.8919C41.1614 65.0847 39.7998 64.761 33.1374 65.5892C24.8137 66.6242 21.6907 66.4567 19.0097 64.8318C15.1297 62.4798 1.41523 50.873 0.676102 49.3152C-0.494144 46.8482 -0.133823 44.421 1.66842 42.6342C3.85776 40.4644 6.70014 40.4549 9.90093 42.6083Z" fill="#E9E2C6"/>
</svg>
