<svg width="107" height="107" viewBox="0 0 107 107" fill="none" xmlns="http://www.w3.org/2000/svg">
<path fill-rule="evenodd" clip-rule="evenodd" d="M37.953 0.323798C43.1353 1.29793 49.6148 4.42978 52.9665 7.58023C53.9243 8.48057 53.8786 9.86844 52.8693 10.5297C52.1276 11.0157 51.9791 11.0081 50.0495 10.3819C46.9895 9.38854 44.6946 9.0431 41.1538 9.0431C37.7344 9.0431 34.7018 9.44799 32.3771 10.2151C30.3514 10.8837 25.4447 13.3311 24.881 13.954C24.4454 14.4357 25.5855 15.6519 39.793 29.8596L55.1766 45.2435V28.4464C55.1766 12.5612 55.2068 11.6222 55.7342 11.145C56.2399 10.6871 58.012 10.6404 74.8921 10.6404C92.2255 10.6404 93.5241 10.6767 93.9597 11.174C94.217 11.4673 95.0876 12.8738 95.8946 14.2991C96.7015 15.7245 97.5236 17.0965 97.7212 17.348C97.9187 17.5996 98.4244 18.4228 98.8445 19.1774C99.2646 19.932 101.272 23.4157 103.304 26.9189L107 33.2887L106.99 69.4513C106.982 101.23 106.925 105.688 106.52 106.224C106.07 106.82 105.653 106.836 87.5367 106.917L69.0138 107L68.3977 106.307C67.7542 105.583 64.9316 101.086 64.9316 100.784C64.9316 100.689 64.6015 100.124 64.1976 99.5289C63.7939 98.9341 62.0694 96.0123 60.3651 93.0366C58.661 90.0605 57.1051 87.3564 56.9075 87.0274C55.0105 83.8666 55.1766 85.0743 55.1766 74.4442V64.7569L35.3691 44.9481C23.1449 32.7228 15.458 25.2527 15.2909 25.4356C14.6937 26.0914 13.4177 30.4977 12.9141 33.6415C12.4056 36.8169 12.4056 37.1529 12.9119 40.6476C13.9472 47.7888 16.5149 53.0082 21.3192 57.7368C23.2321 59.6195 23.5702 60.5018 22.709 61.3632C21.7704 62.3019 21.0747 62.2394 18.5122 60.9863C13.5298 58.5499 9.69005 55.4635 6.62058 51.4283C4.71653 48.9254 2.42319 44.7109 1.84582 42.6541C1.63395 41.8995 1.33704 40.9653 1.18614 40.5781C0.687424 39.3003 0.00243378 34.3092 0.00639343 31.9829C0.0109711 29.5617 0.65023 25.0603 1.25535 23.1919C2.21804 20.2189 2.63476 19.1804 3.59959 17.348C4.17361 16.2581 4.76347 15.237 4.91041 15.0787C5.07014 14.9071 4.1355 13.7262 2.58903 12.1454C0.86026 10.3785 0 9.26689 0 8.79949C0 8.30983 1.21053 6.87653 4.02454 4.03433C9.05536 -1.0473 8.89868 -1.0162 12.3398 2.38822L14.7849 4.80723L17.8147 3.31052C21.029 1.72264 23.6979 0.8101 26.6537 0.28843C28.8345 -0.0963435 35.8334 -0.0743912 37.953 0.323798ZM26.6738 4.05445C23.8586 4.61637 22.9328 4.94078 19.0625 6.72287C17.4678 7.45674 14.4733 9.60227 12.5446 11.392C8.83314 14.8363 5.4323 20.8357 4.44978 25.6716C3.38497 30.9133 3.6694 36.6709 5.21526 41.1677C6.51511 44.9484 9.44586 49.6794 11.8965 51.9533C12.8394 52.828 12.8665 52.8347 12.5156 52.1057C12.1093 51.2606 11.5862 50.0794 10.8774 48.4056C10.6189 47.7961 10.0918 45.8753 9.70529 44.1371C8.11187 36.9681 9.16328 28.9117 12.512 22.634C14.3188 19.2469 14.8904 19.2664 18.443 22.8361C19.945 24.3453 21.2826 25.5801 21.4152 25.5801C21.5481 25.5801 22.6212 24.6002 23.7997 23.4023L25.9431 21.2244L22.7264 17.9597C20.9574 16.1642 19.51 14.5284 19.51 14.3247C19.51 13.5028 20.2279 12.7414 22.4813 11.1725C27.7066 7.5348 32.5896 5.76856 38.8456 5.25299C40.774 5.09383 41.113 4.99749 40.5222 4.77644C37.5052 3.64681 30.5365 3.28369 26.6738 4.05445ZM5.80817 10.1913L7.19003 11.5731L9.47636 9.2864L11.7627 6.99971L10.3808 5.61794L8.99927 4.23617L6.71294 6.52286L4.42663 8.80955L5.80817 10.1913ZM60.7038 14.9851C60.9053 15.3626 61.596 16.5309 62.2386 17.5822C62.8815 18.6332 63.4074 19.5454 63.4074 19.6094C63.4074 19.6735 63.957 20.5973 64.6286 21.6623C65.3002 22.727 65.9431 23.8041 66.0568 24.0557C66.1708 24.3072 66.7555 25.3362 67.3566 26.3424C67.9578 27.3485 68.7211 28.6925 69.0531 29.3288C69.3851 29.9654 69.9311 30.8258 70.2664 31.2411L70.8761 31.9963L86.4755 31.9133L102.075 31.8304L101.205 30.5544C100.727 29.8526 100 28.6864 99.5908 27.9629C99.1817 27.2394 97.2383 23.8691 95.2724 20.4732L91.6981 14.2991H76.0179H60.3376L60.7038 14.9851ZM59.7932 49.0144C60.3236 49.9599 61.971 51.9844 63.4543 53.5128C66.1571 56.2983 66.5955 57.1566 65.7282 57.963C65.3706 58.2953 65.4465 58.6143 66.2226 60.0329C66.7271 60.9552 67.2603 61.8403 67.4076 61.9995C67.856 62.4849 67.7395 34.3982 67.2896 33.6085C67.0826 33.2448 66.6924 32.5588 66.4226 32.0841C66.1528 31.6091 64.8216 29.3282 63.4641 27.0156C62.1063 24.7027 60.5437 21.9882 59.9913 20.983L58.9872 19.1558L58.9079 33.2253L58.8287 47.2948L59.7932 49.0144ZM26.2305 26.2607L24.0735 28.4653L40.4625 44.8591C49.4761 53.8753 56.9386 61.2525 57.0456 61.2525C57.1526 61.2525 58.2126 60.2579 59.4012 59.042L61.5619 56.8316L45.186 40.4436C36.1791 31.4304 28.7147 24.0557 28.5986 24.0557C28.4827 24.0557 27.417 25.0478 26.2305 26.2607ZM71.3333 51.6484V67.6552H87.3376H103.342V51.6484V35.6416H87.3376H71.3333V51.6484ZM90.8933 39.5805C91.8429 39.8841 93.1013 40.4305 93.6902 40.7942L94.7605 41.4559L95.8004 40.5427L96.8405 39.6296L97.9571 40.7735C98.5714 41.4028 99.0741 42.0415 99.0741 42.1928C99.0741 42.3443 98.7134 42.8449 98.2723 43.3053L97.4706 44.1423L98.2245 45.456C99.3814 47.4729 99.7591 49.3077 99.6347 52.3051C99.5451 54.4677 99.3573 55.3461 98.6881 56.7376C98.229 57.6923 97.7041 58.5655 97.5215 58.6783C97.3151 58.806 97.5965 59.3018 98.2678 59.9918L99.3457 61.1L98.0086 62.3437L96.6716 63.5873L95.758 62.6736L94.8444 61.7598L92.7678 62.7971C89.1645 64.5965 84.241 64.3959 81.0511 62.3193L79.947 61.6004L78.9404 62.6391L77.9338 63.6779L76.641 62.3888L75.3481 61.1L76.2803 60.1259L77.2128 59.1515L76.2626 57.2294C74.1815 53.0177 74.2412 49.7013 76.4754 45.4396L77.1732 44.1093L76.387 43.2889C75.9548 42.8376 75.6011 42.3443 75.6011 42.1928C75.6011 42.0415 76.1038 41.4028 76.7181 40.7735L77.8347 39.6296L78.8669 40.536L79.8991 41.4424L81.2517 40.6497C84.0907 38.9856 87.761 38.5786 90.8933 39.5805ZM85.1104 43.0919C82.5711 43.7678 82.3799 44.0669 83.6527 45.371C84.7208 46.4649 84.7217 46.4652 87.3519 46.4402C89.973 46.4155 89.9864 46.4116 90.993 45.3124L92.0032 44.2096L91.2759 43.7331C89.7041 42.7032 87.451 42.4687 85.1104 43.0919ZM93.2945 48.2528C92.6346 49.0373 92.5331 49.4678 92.5004 51.62C92.4651 53.9717 92.5068 54.1342 93.3897 55.0784C93.8994 55.6233 94.4801 56.0693 94.6807 56.0693C94.881 56.0693 95.2635 55.5226 95.5309 54.8543C96.3482 52.8116 96.4384 51.4136 95.8772 49.4763C95.0562 46.6424 94.7654 46.5046 93.2945 48.2528ZM78.7474 49.7242C78.2188 51.7405 78.2207 51.7883 78.9059 53.9165C79.2873 55.1007 79.7702 56.0693 79.9793 56.0693C80.1881 56.0693 80.7759 55.6233 81.2856 55.0784C82.1708 54.1314 82.2104 53.9762 82.1745 51.5795C82.1379 49.1583 82.1007 49.0342 81.0926 47.9943C79.7964 46.6564 79.4928 46.8805 78.7474 49.7242ZM86.0268 50.3374C85.3759 50.9883 85.593 52.3521 86.4356 52.9042C87.9199 53.8768 89.5816 52.2112 88.7246 50.6096C88.3381 49.8873 86.6474 49.7166 86.0268 50.3374ZM87.3376 56.984C86.7288 56.984 85.9872 56.8535 85.6893 56.6944C85.2571 56.4629 84.8864 56.6718 83.8459 57.7319L82.5436 59.0591L83.9886 59.6984C84.9528 60.125 86.067 60.3378 87.3376 60.3378C88.6082 60.3378 89.7224 60.125 90.6866 59.6984L92.1316 59.0591L90.8293 57.7319C89.7888 56.6718 89.4182 56.4629 88.9859 56.6944C88.6881 56.8535 87.9464 56.984 87.3376 56.984ZM60.2828 63.3483L58.8348 64.8676V73.8979V82.9285L60.0675 85.1246C60.7455 86.3326 61.4284 87.5266 61.5848 87.7781C62.5404 89.3138 65.3111 94.047 66.1495 95.5757C66.6942 96.5693 67.2643 97.5166 67.4164 97.6807C67.5819 97.8593 67.6587 92.2359 67.6078 83.6556L67.5228 69.3321L66.2187 67.1979C65.5011 66.024 64.7844 64.8578 64.6259 64.6063C64.4674 64.3548 63.9622 63.5078 63.5037 62.7242C62.5337 61.0665 62.4401 61.0848 60.2828 63.3483ZM14.3276 65.8259V67.6552H12.4986H10.6695V65.8259V63.9965H12.4986H14.3276V65.8259ZM14.3276 72.8384V74.6677H12.4986H10.6695V72.8384V71.009H12.4986H14.3276V72.8384ZM71.3333 87.3207V103.328H87.3376H103.342V87.3207V71.3139H87.3376H71.3333V87.3207ZM90.8933 75.2528C91.8429 75.5565 93.0897 76.0955 93.664 76.4504L94.7084 77.0962L95.7254 76.1879C96.7048 75.3135 96.7655 75.2998 97.3633 75.8123C98.3437 76.6529 99.053 77.5328 99.064 77.9221C99.0695 78.1191 98.6848 78.5993 98.2089 78.9893L97.3438 79.6984L98.0809 80.8744C99.1917 82.6468 99.6767 84.6127 99.6804 87.3586C99.6841 90.016 99.2734 91.5645 98.0528 93.4985L97.2853 94.715L98.1797 95.572C99.2545 96.602 99.2585 96.6416 98.3806 97.5663C96.8338 99.1957 96.6975 99.2329 95.7147 98.2911L94.816 97.4301L93.2107 98.2334C89.3273 100.177 84.2059 100.078 81.0496 97.999L79.9439 97.2706L79.0873 98.1648C78.0109 99.2887 77.7619 99.2826 76.7312 98.1078C75.4752 96.6761 75.4697 96.6379 76.3904 95.6769L77.2464 94.7833L76.2815 92.8814C74.1623 88.7044 74.2397 84.835 76.5199 80.9769L77.2061 79.8161L76.3739 78.9475C75.385 77.9148 75.506 77.3206 76.9492 76.1251L77.9503 75.2955L78.9651 76.2016C79.9028 77.0392 80.0275 77.0727 80.6103 76.6468C83.1347 74.8016 87.5934 74.1973 90.8933 75.2528ZM84.4416 78.9271C82.39 79.5353 82.3229 79.7442 83.7609 81.0491C84.9958 82.1699 85.1168 82.2129 86.1441 81.8976C86.9148 81.661 87.576 81.6586 88.4402 81.8894C89.6117 82.2019 89.6959 82.173 90.8582 81.0561C91.5207 80.4195 92.0627 79.8308 92.0627 79.7475C92.0627 79.5917 89.9401 78.7719 88.8618 78.5112C88.057 78.3167 85.7762 78.5313 84.4416 78.9271ZM14.3276 80.1558V81.9851H12.4986H10.6695V80.1558V78.3264H12.4986H14.3276V80.1558ZM93.2945 83.9252C92.6346 84.7097 92.5331 85.1402 92.5004 87.2924C92.4651 89.644 92.5068 89.8065 93.3897 90.7508C93.8994 91.2959 94.4801 91.7417 94.6807 91.7417C94.881 91.7417 95.2635 91.195 95.5309 90.5267C96.3482 88.4839 96.4384 87.086 95.8772 85.1487C95.0562 82.3147 94.7654 82.1769 93.2945 83.9252ZM78.7474 85.3966C78.2188 87.4128 78.2207 87.4607 78.9059 89.5888C79.2873 90.773 79.7153 91.7417 79.8571 91.7417C79.9991 91.7417 80.5847 91.3258 81.1587 90.8176C82.1992 89.8962 82.2019 89.8864 82.1644 87.3137C82.1278 84.8127 82.0949 84.7008 81.0877 83.6614C79.7967 82.3294 79.4922 82.555 78.7474 85.3966ZM86.3386 85.8137C85.0613 86.7082 85.8286 88.9977 87.4056 88.9977C88.0049 88.9977 89.0142 87.85 89.0142 87.1683C89.0142 86.4866 88.0049 85.339 87.4056 85.339C87.1913 85.339 86.7112 85.5527 86.3386 85.8137ZM14.3276 87.1683V88.9977H12.4986H10.6695V87.1683V85.339H12.4986H14.3276V87.1683ZM87.3376 92.6564C86.7288 92.6564 85.9978 92.532 85.7137 92.3795C85.3302 92.1746 84.9611 92.3161 84.2855 92.9277C82.4305 94.6074 82.4226 94.6781 84.0044 95.3778C85.9308 96.2303 88.7512 96.2273 90.6866 95.3708L92.1316 94.7315L90.8293 93.4043C89.7888 92.3441 89.4182 92.1353 88.9859 92.3667C88.6881 92.5259 87.9464 92.6564 87.3376 92.6564ZM49.9943 94.4857V96.3151H48.1652H46.3362V94.4857V92.6564H48.1652H49.9943V94.4857ZM42.9219 94.4095L42.8305 96.1626L41.0776 96.2541L39.3248 96.3456V94.5009V92.6564H41.1691H43.0134L42.9219 94.4095ZM35.6667 94.5009V96.3456L33.9138 96.2541L32.161 96.1626L32.0695 94.4095L31.9781 92.6564H33.8224H35.6667V94.5009ZM28.6553 94.4857V96.3151H26.8262H24.9971V94.4857V92.6564H26.8262H28.6553V94.4857ZM21.5829 94.4095L21.4914 96.1626L19.7386 96.2541L17.9857 96.3456V94.5009V92.6564H19.83H21.6744L21.5829 94.4095ZM14.3276 94.4857V96.3151H12.4986H10.6695V94.4857V92.6564H12.4986H14.3276V94.4857Z" fill="#BAD6E3"/>
</svg>
