<svg width="160" height="42" viewBox="0 0 160 42" fill="none" xmlns="http://www.w3.org/2000/svg">
<path d="M88.1435 29.3946C87.7099 27.8339 87.2655 26.3381 86.8103 24.9074C86.3551 23.4767 85.9107 22.1327 85.4771 20.8754C85.0653 19.5964 84.6642 18.4367 84.274 17.3962C83.8839 16.3557 83.5262 15.4452 83.201 14.6648C83.1143 15.9004 83.0384 17.2661 82.9734 18.7619C82.93 20.2359 82.8759 21.7533 82.8108 23.3141C82.7675 24.8749 82.7241 26.4465 82.6808 28.0289C82.6591 29.5897 82.6374 31.0855 82.6157 32.5162H79.8193C79.8844 30.5652 79.9494 28.6034 80.0144 26.6308C80.0795 24.6364 80.1553 22.6855 80.242 20.7779C80.3504 18.8486 80.4588 16.9735 80.5672 15.1526C80.6973 13.3317 80.8382 11.6083 80.9899 9.9825H83.8839C84.274 10.9146 84.7184 12.031 85.217 13.3317C85.7156 14.6106 86.2142 15.9546 86.7128 17.3637C87.233 18.7727 87.7316 20.1817 88.2085 21.5908C88.6854 22.9998 89.0973 24.2896 89.4441 25.4602C89.791 24.2896 90.192 22.9998 90.6472 21.5908C91.1024 20.1817 91.5793 18.7727 92.0779 17.3637C92.5765 15.9546 93.0642 14.6106 93.5412 13.3317C94.0397 12.031 94.4841 10.9146 94.8743 9.9825H97.7682C97.92 11.6083 98.0501 13.3317 98.1584 15.1526C98.2885 16.9735 98.3969 18.8486 98.4836 20.7779C98.592 22.6855 98.6787 24.6364 98.7437 26.6308C98.8088 28.6034 98.8738 30.5652 98.9388 32.5162H96.1424C96.0991 31.0855 96.0557 29.5789 96.0124 27.9964C95.9907 26.414 95.9473 24.8315 95.8823 23.2491C95.839 21.6449 95.7848 20.095 95.7197 18.5993C95.6547 17.0819 95.5788 15.6945 95.4921 14.4372C95.297 14.9791 95.0477 15.662 94.7442 16.4857C94.4624 17.2878 94.1589 18.1657 93.8338 19.1195C93.5303 20.0733 93.2051 21.0597 92.8583 22.0785C92.5331 23.0757 92.2188 24.0403 91.9153 24.9724C91.6335 25.9046 91.3734 26.7608 91.1349 27.5412C90.9182 28.2999 90.7448 28.9177 90.6147 29.3946H88.1435Z" fill="black"/>
<path d="M103.9 9.9825H106.827V32.5162H103.9V9.9825Z" fill="black"/>
<path d="M123.339 32.5162C122.819 31.2372 122.222 29.8607 121.55 28.3866C120.9 26.8909 120.206 25.3951 119.469 23.8994C118.754 22.382 118.017 20.8862 117.258 19.4122C116.5 17.9164 115.752 16.5291 115.015 15.2501V32.5162H112.283V9.9825H114.722C115.546 11.3265 116.337 12.703 117.096 14.112C117.876 15.5211 118.613 16.9193 119.307 18.3066C120.001 19.6723 120.651 21.0271 121.258 22.3711C121.886 23.6935 122.461 24.9508 122.981 26.143V9.9825H125.713V32.5162H123.339Z" fill="black"/>
<path d="M131.177 32.5162V9.9825H141.29V12.4862H134.103V19.4772H140.607V21.9159H134.103V30.0124H141.81V32.5162H131.177Z" fill="black"/>
<path d="M146.006 10.3077C147.524 9.93914 148.987 9.75488 150.396 9.75488C151.523 9.75488 152.542 9.88495 153.452 10.1451C154.363 10.4052 155.143 10.8171 155.794 11.3807C156.444 11.9443 156.942 12.6705 157.289 13.5593C157.658 14.448 157.842 15.5211 157.842 16.7784C157.842 18.3391 157.539 19.6073 156.932 20.5828C156.346 21.5366 155.544 22.2628 154.525 22.7613C154.786 23.1949 155.111 23.791 155.501 24.5497C155.913 25.2868 156.325 26.1105 156.736 27.021C157.17 27.9097 157.582 28.831 157.972 29.7848C158.384 30.7386 158.731 31.6491 159.013 32.5162H156.086C155.848 31.8659 155.544 31.1288 155.176 30.3051C154.829 29.4813 154.46 28.6684 154.07 27.8664C153.68 27.0426 153.29 26.2622 152.9 25.5252C152.509 24.7665 152.163 24.127 151.859 23.6068C151.512 23.6501 151.155 23.6826 150.786 23.7043C150.418 23.726 150.049 23.7368 149.68 23.7368H148.868V32.5162H146.006V10.3077ZM148.868 21.3306H150.103C151.599 21.3306 152.748 20.9946 153.55 20.3226C154.352 19.6289 154.753 18.4475 154.753 16.7784C154.753 15.9329 154.645 15.2284 154.428 14.6648C154.233 14.0795 153.94 13.6243 153.55 13.2991C153.181 12.9523 152.726 12.703 152.184 12.5513C151.664 12.3995 151.079 12.3237 150.428 12.3237C149.865 12.3237 149.344 12.3562 148.868 12.4212V21.3306Z" fill="black"/>
<path fill-rule="evenodd" clip-rule="evenodd" d="M74.5161 0H0V42H74.5161V0ZM44.5801 10.5528C46.0976 10.1843 47.5825 10 49.0349 10C50.1621 10 51.1809 10.1409 52.0914 10.4227C53.0235 10.6828 53.8147 11.1055 54.465 11.6908C55.137 12.2545 55.6465 12.9915 55.9933 13.9019C56.3618 14.8124 56.5461 15.9071 56.5461 17.1861C56.5461 18.4867 56.3618 19.6031 55.9933 20.5352C55.6248 21.4457 55.1045 22.1936 54.4325 22.7788C53.7605 23.3425 52.9476 23.7543 51.9938 24.0145C51.0617 24.2746 50.0212 24.4046 48.8723 24.4046H47.5066V32.7613H44.5801V10.5528ZM47.5066 21.8359H48.6772C49.4142 21.8359 50.0754 21.76 50.6607 21.6083C51.2676 21.4348 51.777 21.1639 52.1889 20.7954C52.6008 20.4268 52.9151 19.9499 53.1319 19.3646C53.3487 18.7794 53.457 18.0532 53.457 17.1861C53.457 16.319 53.3487 15.5928 53.1319 15.0075C52.9151 14.4005 52.6116 13.9236 52.2214 13.5768C51.8529 13.2083 51.3977 12.9481 50.8558 12.7964C50.3138 12.6446 49.7177 12.5688 49.0674 12.5688C48.5038 12.5688 47.9835 12.6013 47.5066 12.6663V21.8359ZM21.2506 12.6663C21.8575 11.7775 22.3995 10.9646 22.8764 10.2276H19.6898C19.3213 10.8346 18.8661 11.5608 18.3241 12.4062C17.7822 13.2299 17.1969 14.097 16.5683 15.0075C15.9613 15.9179 15.3435 16.8284 14.7148 17.7388C14.0862 18.6493 13.4901 19.4622 12.9265 20.1776V10.2276H10V32.7613H12.9265V21.9334C13.5768 22.497 14.2379 23.1907 14.9099 24.0145C15.6036 24.8382 16.2756 25.7378 16.9259 26.7133C17.5979 27.6671 18.2266 28.6643 18.8119 29.7048C19.4188 30.7453 19.9499 31.7641 20.4052 32.7613H23.6893C23.2991 31.8075 22.7788 30.767 22.1285 29.6397C21.4782 28.5125 20.7845 27.407 20.0475 26.3231C19.3105 25.2175 18.5626 24.177 17.8039 23.2015C17.0452 22.2044 16.3406 21.3806 15.6903 20.7303C16.2756 19.9499 16.8826 19.1045 17.5112 18.1941C18.1615 17.2836 18.801 16.3623 19.4297 15.4302C20.0583 14.4764 20.6653 13.5551 21.2506 12.6663ZM28.1001 31.4606C29.1622 32.6529 30.7447 33.249 32.8474 33.249C34.9935 33.249 36.6084 32.6421 37.6923 31.4281C38.7762 30.2142 39.3181 28.3391 39.3181 25.8028V10.2276H36.3917V25.5427C36.3917 27.2119 36.1424 28.4908 35.6438 29.3796C35.1669 30.2467 34.2564 30.6803 32.9124 30.6803C31.6118 30.6803 30.7122 30.2575 30.2136 29.4121C29.715 28.545 29.4657 27.2552 29.4657 25.5427V10.2276H26.5393V25.8028C26.5393 28.3825 27.0595 30.2684 28.1001 31.4606ZM63.2883 10.2276H60.3619V32.7613H63.2883V10.2276Z" fill="black"/>
</svg>
