<svg width="120" height="29" viewBox="0 0 120 29" fill="none" xmlns="http://www.w3.org/2000/svg">
<rect width="55" height="29" fill="white"/>
<path d="M17.52 6.368C17.168 6.912 16.768 7.512 16.32 8.168C15.888 8.824 15.44 9.504 14.976 10.208C14.512 10.896 14.04 11.576 13.56 12.248C13.096 12.92 12.648 13.544 12.216 14.12C12.696 14.6 13.216 15.208 13.776 15.944C14.336 16.664 14.888 17.432 15.432 18.248C15.976 19.048 16.488 19.864 16.968 20.696C17.448 21.528 17.832 22.296 18.12 23H15.696C15.36 22.264 14.968 21.512 14.52 20.744C14.088 19.976 13.624 19.24 13.128 18.536C12.648 17.816 12.152 17.152 11.64 16.544C11.144 15.936 10.656 15.424 10.176 15.008V23H8.016V6.368H10.176V13.712C10.592 13.184 11.032 12.584 11.496 11.912C11.96 11.24 12.416 10.568 12.864 9.896C13.328 9.224 13.76 8.584 14.16 7.976C14.56 7.352 14.896 6.816 15.168 6.368H17.52ZM24.8796 23.36C23.3276 23.36 22.1596 22.92 21.3756 22.04C20.6076 21.16 20.2236 19.768 20.2236 17.864V6.368H22.3836V17.672C22.3836 18.936 22.5676 19.888 22.9356 20.528C23.3036 21.152 23.9676 21.464 24.9276 21.464C25.9196 21.464 26.5916 21.144 26.9436 20.504C27.3116 19.848 27.4956 18.904 27.4956 17.672V6.368H29.6556V17.864C29.6556 19.736 29.2556 21.12 28.4556 22.016C27.6556 22.912 26.4636 23.36 24.8796 23.36ZM33.5394 6.608C34.6594 6.336 35.7554 6.2 36.8274 6.2C37.6594 6.2 38.4114 6.304 39.0834 6.512C39.7714 6.704 40.3554 7.016 40.8354 7.448C41.3314 7.864 41.7074 8.408 41.9634 9.08C42.2354 9.752 42.3714 10.56 42.3714 11.504C42.3714 12.464 42.2354 13.288 41.9634 13.976C41.6914 14.648 41.3074 15.2 40.8114 15.632C40.3154 16.048 39.7154 16.352 39.0114 16.544C38.3234 16.736 37.5554 16.832 36.7074 16.832H35.6994V23H33.5394V6.608ZM35.6994 14.936H36.5634C37.1074 14.936 37.5954 14.88 38.0274 14.768C38.4754 14.64 38.8514 14.44 39.1554 14.168C39.4594 13.896 39.6914 13.544 39.8514 13.112C40.0114 12.68 40.0914 12.144 40.0914 11.504C40.0914 10.864 40.0114 10.328 39.8514 9.896C39.6914 9.448 39.4674 9.096 39.1794 8.84C38.9074 8.568 38.5714 8.376 38.1714 8.264C37.7714 8.152 37.3314 8.096 36.8514 8.096C36.4354 8.096 36.0514 8.12 35.6994 8.168V14.936ZM45.1879 6.368H47.3479V23H45.1879V6.368Z" fill="#21211B"/>
<path d="M66.5344 20.696C66.2144 19.544 65.8864 18.44 65.5504 17.384C65.2144 16.328 64.8864 15.336 64.5664 14.408C64.2624 13.464 63.9664 12.608 63.6784 11.84C63.3904 11.072 63.1264 10.4 62.8864 9.824C62.8224 10.736 62.7664 11.744 62.7184 12.848C62.6864 13.936 62.6464 15.056 62.5984 16.208C62.5664 17.36 62.5344 18.52 62.5024 19.688C62.4864 20.84 62.4704 21.944 62.4544 23H60.3904C60.4384 21.56 60.4864 20.112 60.5344 18.656C60.5824 17.184 60.6384 15.744 60.7024 14.336C60.7824 12.912 60.8624 11.528 60.9424 10.184C61.0384 8.84 61.1424 7.568 61.2544 6.368H63.3904C63.6784 7.056 64.0064 7.88 64.3744 8.84C64.7424 9.784 65.1104 10.776 65.4784 11.816C65.8624 12.856 66.2304 13.896 66.5824 14.936C66.9344 15.976 67.2384 16.928 67.4944 17.792C67.7504 16.928 68.0464 15.976 68.3824 14.936C68.7184 13.896 69.0704 12.856 69.4384 11.816C69.8064 10.776 70.1664 9.784 70.5184 8.84C70.8864 7.88 71.2144 7.056 71.5024 6.368H73.6384C73.7504 7.568 73.8464 8.84 73.9264 10.184C74.0224 11.528 74.1024 12.912 74.1664 14.336C74.2464 15.744 74.3104 17.184 74.3584 18.656C74.4064 20.112 74.4544 21.56 74.5024 23H72.4384C72.4064 21.944 72.3744 20.832 72.3424 19.664C72.3264 18.496 72.2944 17.328 72.2464 16.16C72.2144 14.976 72.1744 13.832 72.1264 12.728C72.0784 11.608 72.0224 10.584 71.9584 9.656C71.8144 10.056 71.6304 10.56 71.4064 11.168C71.1984 11.76 70.9744 12.408 70.7344 13.112C70.5104 13.816 70.2704 14.544 70.0144 15.296C69.7744 16.032 69.5424 16.744 69.3184 17.432C69.1104 18.12 68.9184 18.752 68.7424 19.328C68.5824 19.888 68.4544 20.344 68.3584 20.696H66.5344ZM78.1644 6.368H80.3244V23H78.1644V6.368ZM92.5119 23C92.1279 22.056 91.6879 21.04 91.1919 19.952C90.7119 18.848 90.1999 17.744 89.6559 16.64C89.1279 15.52 88.5839 14.416 88.0239 13.328C87.4639 12.224 86.9119 11.2 86.3679 10.256V23H84.3519V6.368H86.1519C86.7599 7.36 87.3439 8.376 87.9039 9.416C88.4799 10.456 89.0239 11.488 89.5359 12.512C90.0479 13.52 90.5279 14.52 90.9759 15.512C91.4399 16.488 91.8639 17.416 92.2479 18.296V6.368H94.2639V23H92.5119ZM98.2973 23V6.368H105.761V8.216H100.457V13.376H105.257V15.176H100.457V21.152H106.145V23H98.2973ZM109.243 6.608C110.363 6.336 111.443 6.2 112.483 6.2C113.315 6.2 114.067 6.296 114.739 6.488C115.411 6.68 115.987 6.984 116.467 7.4C116.947 7.816 117.315 8.352 117.571 9.008C117.843 9.664 117.979 10.456 117.979 11.384C117.979 12.536 117.755 13.472 117.307 14.192C116.875 14.896 116.283 15.432 115.531 15.8C115.723 16.12 115.963 16.56 116.251 17.12C116.555 17.664 116.859 18.272 117.163 18.944C117.483 19.6 117.787 20.28 118.075 20.984C118.379 21.688 118.635 22.36 118.843 23H116.683C116.507 22.52 116.283 21.976 116.011 21.368C115.755 20.76 115.483 20.16 115.195 19.568C114.907 18.96 114.619 18.384 114.331 17.84C114.043 17.28 113.787 16.808 113.563 16.424C113.307 16.456 113.043 16.48 112.771 16.496C112.499 16.512 112.227 16.52 111.955 16.52H111.355V23H109.243V6.608ZM111.355 14.744H112.267C113.371 14.744 114.219 14.496 114.811 14C115.403 13.488 115.699 12.616 115.699 11.384C115.699 10.76 115.619 10.24 115.459 9.824C115.315 9.392 115.099 9.056 114.811 8.816C114.539 8.56 114.203 8.376 113.803 8.264C113.419 8.152 112.987 8.096 112.507 8.096C112.091 8.096 111.707 8.12 111.355 8.168V14.744Z" fill="white"/>
</svg>
