<svg width="120" height="31" viewBox="0 0 120 31" fill="none" xmlns="http://www.w3.org/2000/svg">
<rect width="55" height="31" fill="#36AF33"/>
<rect width="55" height="31" fill="url(#paint0_linear)" fill-opacity="0.34"/>
<path d="M17.52 7.368C17.168 7.912 16.768 8.512 16.32 9.168C15.888 9.824 15.44 10.504 14.976 11.208C14.512 11.896 14.04 12.576 13.56 13.248C13.096 13.92 12.648 14.544 12.216 15.12C12.696 15.6 13.216 16.208 13.776 16.944C14.336 17.664 14.888 18.432 15.432 19.248C15.976 20.048 16.488 20.864 16.968 21.696C17.448 22.528 17.832 23.296 18.12 24H15.696C15.36 23.264 14.968 22.512 14.52 21.744C14.088 20.976 13.624 20.24 13.128 19.536C12.648 18.816 12.152 18.152 11.64 17.544C11.144 16.936 10.656 16.424 10.176 16.008V24H8.016V7.368H10.176V14.712C10.592 14.184 11.032 13.584 11.496 12.912C11.96 12.24 12.416 11.568 12.864 10.896C13.328 10.224 13.76 9.584 14.16 8.976C14.56 8.352 14.896 7.816 15.168 7.368H17.52ZM24.8796 24.36C23.3276 24.36 22.1596 23.92 21.3756 23.04C20.6076 22.16 20.2236 20.768 20.2236 18.864V7.368H22.3836V18.672C22.3836 19.936 22.5676 20.888 22.9356 21.528C23.3036 22.152 23.9676 22.464 24.9276 22.464C25.9196 22.464 26.5916 22.144 26.9436 21.504C27.3116 20.848 27.4956 19.904 27.4956 18.672V7.368H29.6556V18.864C29.6556 20.736 29.2556 22.12 28.4556 23.016C27.6556 23.912 26.4636 24.36 24.8796 24.36ZM33.5394 7.608C34.6594 7.336 35.7554 7.2 36.8274 7.2C37.6594 7.2 38.4114 7.304 39.0834 7.512C39.7714 7.704 40.3554 8.016 40.8354 8.448C41.3314 8.864 41.7074 9.408 41.9634 10.08C42.2354 10.752 42.3714 11.56 42.3714 12.504C42.3714 13.464 42.2354 14.288 41.9634 14.976C41.6914 15.648 41.3074 16.2 40.8114 16.632C40.3154 17.048 39.7154 17.352 39.0114 17.544C38.3234 17.736 37.5554 17.832 36.7074 17.832H35.6994V24H33.5394V7.608ZM35.6994 15.936H36.5634C37.1074 15.936 37.5954 15.88 38.0274 15.768C38.4754 15.64 38.8514 15.44 39.1554 15.168C39.4594 14.896 39.6914 14.544 39.8514 14.112C40.0114 13.68 40.0914 13.144 40.0914 12.504C40.0914 11.864 40.0114 11.328 39.8514 10.896C39.6914 10.448 39.4674 10.096 39.1794 9.84C38.9074 9.568 38.5714 9.376 38.1714 9.264C37.7714 9.152 37.3314 9.096 36.8514 9.096C36.4354 9.096 36.0514 9.12 35.6994 9.168V15.936ZM45.1879 7.368H47.3479V24H45.1879V7.368Z" fill="white"/>
<path d="M66.5344 21.696C66.2144 20.544 65.8864 19.44 65.5504 18.384C65.2144 17.328 64.8864 16.336 64.5664 15.408C64.2624 14.464 63.9664 13.608 63.6784 12.84C63.3904 12.072 63.1264 11.4 62.8864 10.824C62.8224 11.736 62.7664 12.744 62.7184 13.848C62.6864 14.936 62.6464 16.056 62.5984 17.208C62.5664 18.36 62.5344 19.52 62.5024 20.688C62.4864 21.84 62.4704 22.944 62.4544 24H60.3904C60.4384 22.56 60.4864 21.112 60.5344 19.656C60.5824 18.184 60.6384 16.744 60.7024 15.336C60.7824 13.912 60.8624 12.528 60.9424 11.184C61.0384 9.84 61.1424 8.568 61.2544 7.368H63.3904C63.6784 8.056 64.0064 8.88 64.3744 9.84C64.7424 10.784 65.1104 11.776 65.4784 12.816C65.8624 13.856 66.2304 14.896 66.5824 15.936C66.9344 16.976 67.2384 17.928 67.4944 18.792C67.7504 17.928 68.0464 16.976 68.3824 15.936C68.7184 14.896 69.0704 13.856 69.4384 12.816C69.8064 11.776 70.1664 10.784 70.5184 9.84C70.8864 8.88 71.2144 8.056 71.5024 7.368H73.6384C73.7504 8.568 73.8464 9.84 73.9264 11.184C74.0224 12.528 74.1024 13.912 74.1664 15.336C74.2464 16.744 74.3104 18.184 74.3584 19.656C74.4064 21.112 74.4544 22.56 74.5024 24H72.4384C72.4064 22.944 72.3744 21.832 72.3424 20.664C72.3264 19.496 72.2944 18.328 72.2464 17.16C72.2144 15.976 72.1744 14.832 72.1264 13.728C72.0784 12.608 72.0224 11.584 71.9584 10.656C71.8144 11.056 71.6304 11.56 71.4064 12.168C71.1984 12.76 70.9744 13.408 70.7344 14.112C70.5104 14.816 70.2704 15.544 70.0144 16.296C69.7744 17.032 69.5424 17.744 69.3184 18.432C69.1104 19.12 68.9184 19.752 68.7424 20.328C68.5824 20.888 68.4544 21.344 68.3584 21.696H66.5344ZM78.1644 7.368H80.3244V24H78.1644V7.368ZM92.5119 24C92.1279 23.056 91.6879 22.04 91.1919 20.952C90.7119 19.848 90.1999 18.744 89.6559 17.64C89.1279 16.52 88.5839 15.416 88.0239 14.328C87.4639 13.224 86.9119 12.2 86.3679 11.256V24H84.3519V7.368H86.1519C86.7599 8.36 87.3439 9.376 87.9039 10.416C88.4799 11.456 89.0239 12.488 89.5359 13.512C90.0479 14.52 90.5279 15.52 90.9759 16.512C91.4399 17.488 91.8639 18.416 92.2479 19.296V7.368H94.2639V24H92.5119ZM98.2973 24V7.368H105.761V9.216H100.457V14.376H105.257V16.176H100.457V22.152H106.145V24H98.2973ZM109.243 7.608C110.363 7.336 111.443 7.2 112.483 7.2C113.315 7.2 114.067 7.296 114.739 7.488C115.411 7.68 115.987 7.984 116.467 8.4C116.947 8.816 117.315 9.352 117.571 10.008C117.843 10.664 117.979 11.456 117.979 12.384C117.979 13.536 117.755 14.472 117.307 15.192C116.875 15.896 116.283 16.432 115.531 16.8C115.723 17.12 115.963 17.56 116.251 18.12C116.555 18.664 116.859 19.272 117.163 19.944C117.483 20.6 117.787 21.28 118.075 21.984C118.379 22.688 118.635 23.36 118.843 24H116.683C116.507 23.52 116.283 22.976 116.011 22.368C115.755 21.76 115.483 21.16 115.195 20.568C114.907 19.96 114.619 19.384 114.331 18.84C114.043 18.28 113.787 17.808 113.563 17.424C113.307 17.456 113.043 17.48 112.771 17.496C112.499 17.512 112.227 17.52 111.955 17.52H111.355V24H109.243V7.608ZM111.355 15.744H112.267C113.371 15.744 114.219 15.496 114.811 15C115.403 14.488 115.699 13.616 115.699 12.384C115.699 11.76 115.619 11.24 115.459 10.824C115.315 10.392 115.099 10.056 114.811 9.816C114.539 9.56 114.203 9.376 113.803 9.264C113.419 9.152 112.987 9.096 112.507 9.096C112.091 9.096 111.707 9.12 111.355 9.168V15.744Z" fill="black"/>
<defs>
<linearGradient id="paint0_linear" x1="0" y1="0" x2="36.3809" y2="28.6081" gradientUnits="userSpaceOnUse">
<stop stop-color="white"/>
<stop offset="1" stop-color="white" stop-opacity="0"/>
</linearGradient>
</defs>
</svg>
