<svg width="94" height="94" viewBox="0 0 94 94" fill="none" xmlns="http://www.w3.org/2000/svg">
<path d="M63.156 16.7809C46.6214 7.671 25.8337 13.6896 16.7238 30.2241C7.61396 46.7587 13.6325 67.5464 30.1671 76.6563C46.7017 85.7662 67.4894 79.7476 76.5993 63.213C85.7091 46.6784 79.6906 25.8907 63.156 16.7809ZM59.8571 22.7684C73.0836 30.0557 77.899 46.6876 70.6117 59.9141C63.3245 73.1406 46.6925 77.956 33.466 70.6687C20.2395 63.3815 15.4241 46.7495 22.7114 33.523C29.9986 20.2966 46.6306 15.4812 59.8571 22.7684ZM56.1798 25.1403L53.0516 30.818L46.7893 27.3677L30.3721 57.1651L36.6345 60.6154L33.5901 66.141L37.4785 68.2833L40.5326 62.7402C43.424 64.2708 46.0416 64.7747 48.3655 64.1975C50.7638 63.5988 52.7601 61.8518 54.3535 58.9598C54.751 58.2383 55.0695 57.4887 55.2975 56.7207C55.5242 55.948 55.638 55.1731 55.635 54.4066C55.632 53.64 55.4804 52.8906 55.1933 52.1509C54.9028 51.4172 54.4397 50.7248 53.7996 50.0873C54.6136 50.1612 55.3749 50.1075 56.0861 49.9217C56.8016 49.7422 57.4664 49.4604 58.0796 49.0841C58.6869 48.7044 59.2347 48.2457 59.7218 47.6945C60.2148 47.1467 60.6429 46.5345 61.0173 45.8549C61.7843 44.4628 62.2355 43.135 62.3715 41.8753C62.5015 40.6122 62.342 39.4217 61.8992 38.2918C61.453 37.1679 60.7331 36.1158 59.7333 35.1396C58.9545 34.3787 57.9814 33.6768 56.911 33.013L60.0682 27.2827L56.1798 25.1403ZM50.0451 35.6937L53.2377 37.4527C54.4652 38.129 55.1872 38.9128 55.4117 39.8015C55.6363 40.6901 55.3731 41.8083 54.6292 43.1585C53.9678 44.359 53.1728 45.1078 52.2535 45.4092C51.3297 45.7119 50.2694 45.5355 49.0659 44.8725L45.9377 43.1489L50.0451 35.6937ZM43.5247 47.5285L47.5768 49.761C48.6965 50.3779 49.2923 51.1868 49.3536 52.1806C49.4208 53.1776 49.1046 54.3065 48.4052 55.5758C48.0954 56.131 47.7525 56.6083 47.3741 57.0047C46.9957 57.4011 46.5783 57.7027 46.1219 57.9078C45.6628 58.1037 45.1757 58.1887 44.654 58.151C44.131 58.1087 43.5744 57.9296 42.9876 57.6063L39.1401 55.4865L43.5247 47.5285Z" fill="#D9E8EF"/>
</svg>
