<svg width="239" height="232" viewBox="0 0 239 232" fill="none" xmlns="http://www.w3.org/2000/svg">
<path d="M223.32 133.981C226.88 135.135 228.849 138.966 227.478 142.448C222.334 155.506 214.73 167.48 205.059 177.708C193.834 189.579 180.105 198.801 164.87 204.704C149.635 210.606 133.276 213.04 116.982 211.83C100.689 210.619 84.8696 205.795 70.6739 197.706C56.4781 189.617 44.2626 178.468 34.9147 165.067C25.5668 151.667 19.3214 136.353 16.6322 120.238C13.943 104.122 14.8775 87.6096 19.3679 71.9002C23.2366 58.366 29.6609 45.7206 38.2723 34.6384C40.5684 31.6835 44.8682 31.4247 47.6761 33.8983C50.484 36.3719 50.7339 40.6398 48.4635 43.6144C41.1687 53.1719 35.7127 64.026 32.3973 75.6246C28.4601 89.3986 27.6406 103.877 29.9986 118.007C32.3565 132.137 37.8325 145.565 46.0288 157.314C54.2251 169.064 64.9358 178.84 77.3827 185.932C89.8296 193.024 103.7 197.255 117.986 198.316C132.273 199.377 146.616 197.243 159.974 192.068C173.333 186.892 185.37 178.806 195.213 168.397C203.501 159.632 210.057 149.405 214.56 138.257C215.962 134.787 219.761 132.826 223.32 133.981Z" fill="#D9E8EF"/>
</svg>
