<svg width="127" height="120" viewBox="0 0 127 120" fill="none" xmlns="http://www.w3.org/2000/svg">
<path d="M2.55458 38.9766C0.518205 37.903 -0.27325 35.374 0.923619 33.4076C5.41495 26.0283 11.2843 19.5653 18.2242 14.3782C26.2789 8.35795 35.5735 4.2076 45.4328 2.22869C55.292 0.24979 65.4683 0.492018 75.2222 2.93778C84.9762 5.38354 94.0628 9.97142 101.822 16.3681C109.581 22.7647 115.818 30.8095 120.079 39.9179C124.34 49.0263 126.519 58.9696 126.457 69.0253C126.395 79.081 124.093 88.9966 119.72 98.0516C115.951 105.854 110.726 112.848 104.339 118.664C102.637 120.214 100.004 119.919 98.5614 118.125C97.1191 116.331 97.4157 113.718 99.1043 112.153C104.533 107.123 108.983 101.113 112.213 94.4259C116.048 86.4859 118.066 77.7912 118.12 68.9738C118.175 60.1563 116.264 51.4374 112.528 43.4505C108.791 35.4637 103.323 28.4095 96.519 22.8005C89.7153 17.1915 81.7475 13.1685 73.1947 11.0239C64.6418 8.87934 55.7186 8.66693 47.0733 10.4022C38.4281 12.1374 30.278 15.7767 23.2151 21.0556C17.2671 25.5013 12.2161 31.0158 8.31352 37.3046C7.09969 39.2606 4.59096 40.0502 2.55458 38.9766Z" fill="#D9E8EF"/>
</svg>
