<svg width="94" height="94" viewBox="0 0 94 94" fill="none" xmlns="http://www.w3.org/2000/svg">
<path d="M63.2131 16.7808C46.6785 7.67093 25.8908 13.6895 16.781 30.2241C7.67109 46.7587 13.6896 67.5464 30.2242 76.6562C46.7588 85.7661 67.5465 79.7475 76.6564 63.213C85.7663 46.6784 79.7477 25.8907 63.2131 16.7808ZM59.9142 22.7684C73.1407 30.0556 77.9561 46.6876 70.6688 59.9141C63.3816 73.1405 46.7496 77.9559 33.5231 70.6687C20.2966 63.3814 15.4813 46.7495 22.7685 33.523C30.0557 20.2965 46.6877 15.4811 59.9142 22.7684ZM56.2369 25.1403L53.1087 30.8179L46.8464 27.3676L30.4293 57.165L36.6916 60.6153L33.6473 66.1409L37.5356 68.2833L40.5897 62.7401C43.4811 64.2707 46.0987 64.7747 48.4227 64.1974C50.8209 63.5987 52.8173 61.8517 54.4106 58.9597C54.8082 58.2382 55.1266 57.4887 55.3547 56.7206C55.5813 55.9479 55.6951 55.1731 55.6921 54.4065C55.6891 53.6399 55.5375 52.8905 55.2504 52.1509C54.96 51.4172 54.4968 50.7248 53.8568 50.0873C54.6708 50.1611 55.4321 50.1074 56.1432 49.9217C56.8587 49.7422 57.5236 49.4603 58.1368 49.084C58.744 48.7044 59.2918 48.2456 59.7789 47.6945C60.272 47.1466 60.7 46.5344 61.0745 45.8549C61.8415 44.4628 62.2926 43.135 62.4286 41.8752C62.5587 40.6122 62.3992 39.4216 61.9563 38.2917C61.5101 37.1678 60.7902 36.1157 59.7905 35.1395C59.0116 34.3787 58.0385 33.6768 56.9681 33.0129L60.1253 27.2826L56.2369 25.1403ZM50.1023 35.6937L53.2949 37.4527C54.5223 38.1289 55.2443 38.9128 55.4689 39.8014C55.6934 40.69 55.4303 41.8083 54.6864 43.1585C54.0249 44.359 53.2299 45.1077 52.3107 45.4091C51.3868 45.7118 50.3265 45.5355 49.123 44.8724L45.9948 43.1489L50.1023 35.6937ZM43.5818 47.5284L47.6339 49.761C48.7536 50.3779 49.3495 51.1867 49.4107 52.1805C49.478 53.1776 49.1617 54.3064 48.4624 55.5758C48.1526 56.131 47.8096 56.6082 47.4312 57.0046C47.0528 57.4011 46.6354 57.7027 46.179 57.9078C45.7199 58.1036 45.2329 58.1886 44.7112 58.1509C44.1881 58.1086 43.6315 57.9296 43.0447 57.6063L39.1973 55.4865L43.5818 47.5284Z" fill="#D9E8EF"/>
</svg>
