<svg width="90" height="90" viewBox="0 0 90 90" fill="none" xmlns="http://www.w3.org/2000/svg">
<path fill-rule="evenodd" clip-rule="evenodd" d="M31.9231 0.272353C36.282 1.09171 41.7321 3.72598 44.5513 6.37589C45.3569 7.13319 45.3185 8.30056 44.4695 8.8568C43.8456 9.26558 43.7208 9.25917 42.0977 8.73242C39.5238 7.8969 37.5936 7.60634 34.6154 7.60634C31.7392 7.60634 29.1885 7.94691 27.2331 8.59214C25.5292 9.15454 21.402 11.2131 20.9279 11.737C20.5615 12.1422 21.5205 13.1652 33.4708 25.1155L46.4103 38.0553V23.9269C46.4103 10.5655 46.4356 9.77566 46.8792 9.37432C47.3046 8.98913 48.7951 8.94989 62.9933 8.94989C77.5728 8.94989 78.6651 8.98041 79.0315 9.39868C79.2479 9.64539 79.9803 10.8284 80.659 12.0273C81.3377 13.2262 82.0292 14.3802 82.1954 14.5918C82.3615 14.8034 82.7869 15.4958 83.1403 16.1305C83.4936 16.7652 85.1818 19.6955 86.8915 22.6421L90 27.9999L89.9918 58.417C89.9846 85.1464 89.9367 88.8965 89.5964 89.3473C89.2174 89.849 88.8667 89.8618 73.629 89.93L58.049 90L57.5308 89.4171C56.9895 88.808 54.6154 85.0254 54.6154 84.7717C54.6154 84.6915 54.3377 84.2163 53.9979 83.7159C53.6585 83.2156 52.2079 80.758 50.7744 78.2551C49.341 75.7518 48.0323 73.4774 47.8662 73.2007C46.2705 70.542 46.4103 71.5578 46.4103 62.6167V54.4684L29.7497 37.8068C19.4677 27.5239 13.0021 21.2406 12.8615 21.3944C12.3592 21.9461 11.2859 25.6523 10.8623 28.2966C10.4346 30.9675 10.4346 31.2501 10.8605 34.1896C11.7313 40.1962 13.891 44.5863 17.932 48.5636C19.541 50.1472 19.8254 50.8894 19.101 51.6139C18.3115 52.4035 17.7264 52.3509 15.571 51.2969C11.3802 49.2476 8.15051 46.6515 5.56872 43.2574C3.96718 41.1522 2.0382 37.6073 1.55256 35.8773C1.37436 35.2425 1.12462 34.4568 0.997696 34.1311C0.578209 33.0563 0.00205231 28.8582 0.00538635 26.9015C0.00923157 24.865 0.546928 21.0787 1.0559 19.5072C1.86565 17.0066 2.21616 16.1331 3.02769 14.5918C3.51051 13.675 4.00667 12.8161 4.13026 12.6831C4.26461 12.5387 3.47845 11.5454 2.17769 10.2157C0.723587 8.7296 0 7.79458 0 7.40144C0 6.98958 1.0182 5.784 3.38512 3.39336C7.61666 -0.880908 7.48487 -0.85475 10.3792 2.00878L12.4359 4.04347L14.9844 2.78455C17.688 1.44895 19.9328 0.681393 22.419 0.242605C24.2533 -0.0810366 30.1403 -0.0625721 31.9231 0.272353ZM22.4359 3.41029C20.0679 3.88293 19.2892 4.15579 16.0339 5.65475C14.6926 6.27203 12.1738 8.07667 10.5515 9.58204C7.42974 12.4792 4.56922 17.5254 3.74281 21.5929C2.84718 26.0018 3.08641 30.8447 4.38667 34.6271C5.48 37.8071 7.94512 41.7864 10.0064 43.699C10.7995 44.4348 10.8223 44.4404 10.5272 43.8272C10.1854 43.1164 9.74538 42.1229 9.14923 40.715C8.9318 40.2023 8.48846 38.5867 8.16333 37.1246C6.82307 31.0947 7.70744 24.3182 10.5241 19.0379C12.0439 16.189 12.5246 16.2054 15.5128 19.2079C16.7761 20.4774 17.9013 21.516 18.0128 21.516C18.1246 21.516 19.0272 20.6918 20.0185 19.6842L21.8213 17.8523L19.1156 15.1063C17.6277 13.596 16.4103 12.2202 16.4103 12.0488C16.4103 11.3575 17.0141 10.7171 18.9095 9.3974C23.3046 6.33768 27.4118 4.85206 32.6738 4.4184C34.2959 4.28453 34.581 4.20349 34.0841 4.01757C31.5464 3.06741 25.6849 2.76198 22.4359 3.41029ZM4.88538 8.57214L6.04769 9.73437L7.97077 7.81099L9.89385 5.88761L8.73154 4.72537L7.56948 3.56313L5.6464 5.48652L3.72334 7.4099L4.88538 8.57214ZM51.0592 12.6043C51.2287 12.9218 51.8097 13.9045 52.3503 14.7888C52.891 15.6728 53.3333 16.4401 53.3333 16.4939C53.3333 16.5478 53.7956 17.3248 54.3605 18.2206C54.9254 19.1161 55.4662 20.0222 55.5618 20.2337C55.6577 20.4453 56.1495 21.3108 56.6551 22.1571C57.1608 23.0034 57.8028 24.1339 58.082 24.6691C58.3613 25.2045 58.8205 25.9282 59.1026 26.2775L59.6154 26.9128L72.7364 26.843L85.8574 26.7732L85.1256 25.7C84.7233 25.1096 84.1123 24.1287 83.7679 23.5202C83.4238 22.9116 81.7892 20.0768 80.1356 17.2204L77.1292 12.0273H63.9403H50.7513L51.0592 12.6043ZM50.2933 41.2271C50.7395 42.0223 52.1251 43.7252 53.3728 45.0108C55.6461 47.3537 56.0149 48.0756 55.2854 48.7539C54.9846 49.0335 55.0485 49.3017 55.7013 50.495C56.1256 51.2707 56.5741 52.0152 56.698 52.1491C57.0751 52.5574 56.9772 28.9331 56.5987 28.2689C56.4246 27.9629 56.0964 27.3859 55.8695 26.9866C55.6426 26.5871 54.5228 24.6686 53.381 22.7234C52.239 20.7779 50.9246 18.4947 50.46 17.6492L49.6154 16.1123L49.5487 27.9465L49.4821 39.7807L50.2933 41.2271ZM22.0631 22.0884L20.2487 23.9428L34.0338 37.7319C41.6154 45.3157 47.8923 51.5208 47.9823 51.5208C48.0723 51.5208 48.9638 50.6842 49.9636 49.6615L51.781 47.8022L38.0069 34.018C30.431 26.4368 24.1526 20.2337 24.0549 20.2337C23.9574 20.2337 23.061 21.0682 22.0631 22.0884ZM60 43.4426V56.9063H73.4615H86.9231V43.4426V29.9789H73.4615H60V43.4426ZM76.4523 33.292C77.251 33.5474 78.3095 34.007 78.8049 34.3129L79.7051 34.8694L80.5797 34.1013L81.4546 33.3333L82.3938 34.2955C82.9105 34.8248 83.3333 35.362 83.3333 35.4893C83.3333 35.6167 83.03 36.0378 82.659 36.425L81.9846 37.129L82.6187 38.2341C83.5918 39.9305 83.9095 41.4738 83.8049 43.995C83.7295 45.814 83.5715 46.5528 83.0087 47.7233C82.6226 48.5262 82.181 49.2607 82.0274 49.3556C81.8538 49.463 82.0905 49.88 82.6551 50.4604L83.5618 51.3926L82.4372 52.4386L81.3126 53.4847L80.5441 52.7161L79.7756 51.9475L78.029 52.82C74.9982 54.3335 70.8569 54.1648 68.1738 52.4181L67.2451 51.8134L66.3985 52.6871L65.5518 53.5609L64.4644 52.4766L63.3769 51.3926L64.161 50.5732L64.9454 49.7536L64.1462 48.1369C62.3956 44.5943 62.4459 41.8049 64.3251 38.2202L64.9121 37.1013L64.2508 36.4112C63.8872 36.0316 63.5897 35.6167 63.5897 35.4893C63.5897 35.362 64.0126 34.8248 64.5292 34.2955L65.4685 33.3333L66.3367 34.0957L67.2049 34.8581L68.3426 34.1913C70.7305 32.7916 73.8177 32.4493 76.4523 33.292ZM71.5882 36.2455C69.4523 36.8141 69.2915 37.0657 70.3621 38.1625C71.2605 39.0826 71.2613 39.0829 73.4736 39.0619C75.6782 39.0411 75.6895 39.0378 76.5362 38.1133L77.3859 37.1857L76.7741 36.7848C75.4521 35.9185 73.5569 35.7213 71.5882 36.2455ZM78.4721 40.5865C77.9169 41.2463 77.8315 41.6084 77.8041 43.4187C77.7744 45.3967 77.8095 45.5334 78.5521 46.3276C78.9808 46.7859 79.4692 47.1611 79.6379 47.1611C79.8064 47.1611 80.1282 46.7013 80.3531 46.1392C81.0405 44.4209 81.1164 43.2451 80.6444 41.6156C79.9538 39.2319 79.7092 39.116 78.4721 40.5865ZM66.2362 41.8241C65.7915 43.52 65.7931 43.5603 66.3695 45.3503C66.6903 46.3464 67.0964 47.1611 67.2723 47.1611C67.4479 47.1611 67.9423 46.7859 68.371 46.3276C69.1156 45.5311 69.149 45.4006 69.1187 43.3846C69.088 41.3481 69.0567 41.2438 68.2087 40.369C67.1185 39.2437 66.8631 39.4322 66.2362 41.8241ZM72.359 42.3398C71.8115 42.8874 71.9941 44.0345 72.7028 44.4989C73.9513 45.317 75.349 43.916 74.6282 42.5688C74.3031 41.9613 72.881 41.8177 72.359 42.3398ZM73.4615 47.9305C72.9495 47.9305 72.3256 47.8207 72.0751 47.6868C71.7115 47.4922 71.3997 47.6679 70.5246 48.5595L69.4292 49.6759L70.6446 50.2136C71.4556 50.5724 72.3928 50.7514 73.4615 50.7514C74.5303 50.7514 75.4674 50.5724 76.2785 50.2136L77.4938 49.6759L76.3985 48.5595C75.5233 47.6679 75.2115 47.4922 74.8479 47.6868C74.5974 47.8207 73.9736 47.9305 73.4615 47.9305ZM50.7051 53.2836L49.4872 54.5615V62.1571V69.7529L50.5241 71.6001C51.0944 72.6162 51.6687 73.6205 51.8003 73.832C52.6041 75.1238 54.9346 79.1049 55.6397 80.3908C56.0979 81.2266 56.5774 82.0233 56.7054 82.1613C56.8446 82.3116 56.9092 77.5816 56.8664 70.3646L56.7949 58.3167L55.6979 56.5216C55.0944 55.5342 54.4915 54.5533 54.3582 54.3417C54.2249 54.1302 53.8 53.4178 53.4144 52.7587C52.5985 51.3643 52.5197 51.3797 50.7051 53.2836ZM12.0513 55.3675V56.9063H10.5128H8.97436V55.3675V53.8288H10.5128H12.0513V55.3675ZM12.0513 61.2659V62.8046H10.5128H8.97436V61.2659V59.7272H10.5128H12.0513V61.2659ZM60 73.4474V86.911H73.4615H86.9231V73.4474V59.9837H73.4615H60V73.4474ZM76.4523 63.2968C77.251 63.5522 78.2997 64.0056 78.7828 64.3041L79.6613 64.8473L80.5167 64.0833C81.3405 63.3478 81.3915 63.3363 81.8944 63.7673C82.719 64.4744 83.3156 65.2145 83.3249 65.542C83.3295 65.7077 83.0059 66.1116 82.6056 66.4396L81.8779 67.0361L82.498 68.0252C83.4323 69.516 83.8403 71.1696 83.8433 73.4792C83.8464 75.7144 83.501 77.0169 82.4744 78.6436L81.8287 79.6668L82.581 80.3877C83.4851 81.254 83.4885 81.2873 82.75 82.0651C81.449 83.4356 81.3344 83.4669 80.5077 82.6747L79.7518 81.9505L78.4015 82.6263C75.1351 84.2609 70.8274 84.1778 68.1726 82.429L67.2426 81.8164L66.5221 82.5686C65.6167 83.5138 65.4072 83.5087 64.5403 82.5206C63.4838 81.3163 63.4792 81.2843 64.2536 80.4759L64.9736 79.7243L64.1621 78.1245C62.3795 74.6111 62.4446 71.3565 64.3626 68.1114L64.9397 67.1351L64.2397 66.4044C63.408 65.5358 63.5097 65.036 64.7236 64.0305L65.5656 63.3327L66.4192 64.0948C67.208 64.7993 67.3128 64.8275 67.8031 64.4693C69.9264 62.9172 73.6767 62.4089 76.4523 63.2968ZM71.0256 66.3873C69.3 66.8989 69.2436 67.0745 70.4531 68.1722C71.4918 69.1149 71.5936 69.151 72.4577 68.8859C73.1059 68.6869 73.6621 68.6848 74.389 68.8789C75.3744 69.1418 75.4451 69.1174 76.4228 68.1781C76.98 67.6426 77.4359 67.1474 77.4359 67.0774C77.4359 66.9463 75.6505 66.2567 74.7436 66.0375C74.0667 65.8738 72.1482 66.0544 71.0256 66.3873ZM12.0513 67.4208V68.9595H10.5128H8.97436V67.4208V65.882H10.5128H12.0513V67.4208ZM78.4721 70.5913C77.9169 71.2511 77.8315 71.6132 77.8041 73.4235C77.7744 75.4015 77.8095 75.5382 78.5521 76.3324C78.9808 76.791 79.4692 77.1659 79.6379 77.1659C79.8064 77.1659 80.1282 76.7061 80.3531 76.1439C81.0405 74.4257 81.1164 73.2499 80.6444 71.6204C79.9538 69.2367 79.7092 69.1208 78.4721 70.5913ZM66.2362 71.8289C65.7915 73.5248 65.7931 73.5651 66.3695 75.3551C66.6903 76.3512 67.0503 77.1659 67.1695 77.1659C67.289 77.1659 67.7815 76.8161 68.2644 76.3886C69.1395 75.6136 69.1418 75.6054 69.1103 73.4415C69.0795 71.3378 69.0518 71.2437 68.2046 70.3694C67.1187 69.249 66.8626 69.4388 66.2362 71.8289ZM72.6213 72.1797C71.5469 72.9322 72.1923 74.8578 73.5187 74.8578C74.0228 74.8578 74.8718 73.8926 74.8718 73.3191C74.8718 72.7457 74.0228 71.7804 73.5187 71.7804C73.3385 71.7804 72.9346 71.9602 72.6213 72.1797ZM12.0513 73.3191V74.8578H10.5128H8.97436V73.3191V71.7804H10.5128H12.0513V73.3191ZM73.4615 77.9353C72.9495 77.9353 72.3346 77.8306 72.0956 77.7024C71.7731 77.5301 71.4626 77.6491 70.8944 78.1635C69.3341 79.5763 69.3274 79.6358 70.6579 80.2243C72.2782 80.9414 74.6505 80.9388 76.2785 80.2184L77.4938 79.6807L76.3985 78.5643C75.5233 77.6727 75.2115 77.497 74.8479 77.6916C74.5974 77.8255 73.9736 77.9353 73.4615 77.9353ZM42.0513 79.474V81.0127H40.5128H38.9744V79.474V77.9353H40.5128H42.0513V79.474ZM36.1026 79.4099L36.0256 80.8844L34.5513 80.9614L33.0769 81.0383V79.4868V77.9353H34.6282H36.1795L36.1026 79.4099ZM30 79.4868V81.0383L28.5256 80.9614L27.0513 80.8844L26.9744 79.4099L26.8974 77.9353H28.4487H30V79.4868ZM24.1026 79.474V81.0127H22.5641H21.0256V79.474V77.9353H22.5641H24.1026V79.474ZM18.1538 79.4099L18.0769 80.8844L16.6026 80.9614L15.1282 81.0383V79.4868V77.9353H16.6795H18.2308L18.1538 79.4099ZM12.0513 79.474V81.0127H10.5128H8.97436V79.474V77.9353H10.5128H12.0513V79.474Z" fill="#EFEBD9"/>
</svg>
