<svg width="221" height="213" viewBox="0 0 221 213" fill="none" xmlns="http://www.w3.org/2000/svg">
<path d="M16.2447 60.1027C13.157 57.9886 12.3515 53.7571 14.6516 50.8054C23.2781 39.7349 33.9573 30.4005 46.1261 23.3249C60.2505 15.1122 76.027 10.1491 92.3093 8.79608C108.592 7.4431 124.971 9.73422 140.257 15.503C155.543 21.2718 169.352 30.3733 180.681 42.1463C192.01 53.9194 200.574 68.0682 205.751 83.5648C210.928 99.0615 212.587 115.517 210.609 131.735C208.631 147.953 203.065 163.527 194.316 177.326C186.778 189.213 177.04 199.526 165.646 207.72C162.608 209.905 158.41 208.938 156.416 205.771C154.423 202.604 155.39 198.44 158.409 196.229C168.109 189.124 176.412 180.256 182.872 170.069C190.543 157.97 195.424 144.315 197.158 130.095C198.892 115.874 197.437 101.446 192.898 87.8585C188.359 74.271 180.85 61.8652 170.917 51.5425C160.983 41.2198 148.876 33.2395 135.473 28.1814C122.069 23.1233 107.708 21.1144 93.4315 22.3007C79.155 23.4871 65.3221 27.8388 52.9377 35.0397C42.5093 41.1033 33.3286 49.059 25.8565 58.4786C23.5309 61.4103 19.3324 62.2167 16.2447 60.1027Z" fill="#D9E8EF"/>
</svg>
