<svg width="127" height="174" viewBox="0 0 127 174" fill="none" xmlns="http://www.w3.org/2000/svg">
<path d="M90.0979 82.5007C86.7654 81.5851 83.5036 81.137 80.3124 81.1563C77.1213 81.1755 73.4663 81.615 69.3474 82.4745L67.8263 65.1816C72.0724 63.8593 76.8138 63.2703 82.0506 63.4148C87.3129 63.4668 92.3045 64.1413 97.0256 65.4383C102.95 67.066 107.594 69.1881 110.957 71.8045C114.412 74.4463 116.92 77.2759 118.481 80.293C120.041 83.3102 120.844 86.3681 120.889 89.4667C121.026 92.5907 120.738 95.4486 120.026 98.0406C119.314 100.633 118.236 102.925 116.793 104.918C115.467 106.843 113.949 108.567 112.237 110.087C110.525 111.608 108.653 112.985 106.621 114.219C104.59 115.453 102.63 116.607 100.742 117.682C99.326 118.487 97.8383 119.373 96.2788 120.338C94.7448 121.211 93.2779 122.202 91.8781 123.31C90.5709 124.445 89.3772 125.71 88.2968 127.105C87.2419 128.408 86.4983 129.847 86.0659 131.42C85.9642 131.791 85.8116 132.346 85.6082 133.087C85.4047 133.827 85.273 134.488 85.2129 135.069L66.8841 130.033C66.9533 129.057 67.0942 128 67.3068 126.864C67.6374 125.661 67.9172 124.642 68.1461 123.809C68.8582 121.217 69.818 118.992 71.0255 117.133C72.2584 115.182 73.6256 113.467 75.1271 111.988C76.7466 110.442 78.4668 109.073 80.2877 107.881C82.1086 106.688 83.9631 105.555 85.8511 104.481C88.5652 102.937 91.0814 101.388 93.3997 99.8347C95.7435 98.1888 97.2841 96.0236 98.0217 93.3391C98.6321 91.1174 98.274 88.9781 96.9475 86.9212C95.7136 84.8898 93.4304 83.4162 90.0979 82.5007ZM83.8226 155.893C82.7036 159.966 80.4966 162.744 77.2017 164.228C73.9994 165.738 70.7319 166.035 67.3994 165.119C64.0669 164.204 61.3636 162.266 59.2894 159.307C57.3079 156.373 56.8766 152.87 57.9956 148.797C59.1146 144.724 61.2753 141.932 64.4777 140.423C67.7726 138.939 71.0863 138.654 74.4188 139.57C77.7513 140.486 80.4084 142.41 82.3899 145.344C84.4641 148.303 84.9416 151.819 83.8226 155.893Z" fill="#D9E8EF"/>
<path d="M15.5937 61.2889C14.0058 61.9707 12.5914 62.813 11.3505 63.816C10.1095 64.8189 8.81829 66.1307 7.47688 67.7514L1.48833 61.4684C2.73505 59.6272 4.40415 57.918 6.49561 56.341C8.56814 54.7198 10.7291 53.4264 12.9785 52.4606C15.8014 51.2486 18.2779 50.6293 20.4082 50.6027C22.5826 50.5571 24.4453 50.8805 25.9962 51.5728C27.5471 52.2651 28.8146 53.2096 29.7986 54.4065C30.8267 55.5844 31.6059 56.7909 32.1361 58.0259C32.6664 59.2609 32.9603 60.4928 33.0178 61.7218C33.1005 62.8878 33.0445 64.0349 32.8499 65.1632C32.6552 66.2915 32.3535 67.4136 31.9445 68.5295C31.5356 69.6453 31.1297 70.7076 30.727 71.7163C30.425 72.4728 30.1198 73.2829 29.8116 74.1466C29.4844 74.9662 29.2202 75.8109 29.0191 76.6808C28.8621 77.5318 28.7902 78.3984 28.8034 79.2808C28.7976 80.1191 28.9557 80.9131 29.2776 81.6629C29.3534 81.8393 29.467 82.104 29.6185 82.4568C29.77 82.8097 29.9246 83.109 30.0823 83.3547L21.3493 87.1042C21.0717 86.701 20.7972 86.2443 20.5258 85.7339C20.2797 85.1605 20.0714 84.6754 19.9009 84.2784C19.3707 83.0434 19.0516 81.8745 18.9438 80.7716C18.817 79.6246 18.8162 78.5279 18.9416 77.4816C19.0921 76.3722 19.3372 75.3006 19.6769 74.2667C20.0166 73.2328 20.3878 72.2115 20.7905 71.2028C21.3694 69.7528 21.8695 68.3628 22.2909 67.0326C22.6934 65.6584 22.62 64.3317 22.0709 63.0526C21.6164 61.994 20.8092 61.2698 19.6492 60.8798C18.5334 60.4708 17.1815 60.6072 15.5937 61.2889ZM36.0346 91.9256C36.8678 93.8663 36.8721 95.6405 36.0475 97.2482C35.267 98.837 34.0829 99.9723 32.495 100.654C30.9072 101.336 29.2465 101.422 27.5129 100.913C25.8235 100.384 24.5621 99.1497 23.7289 97.209C22.8956 95.2684 22.8693 93.5036 23.6498 91.9148C24.4744 90.3071 25.6806 89.1624 27.2684 88.4806C28.8562 87.7989 30.4949 87.7222 32.1844 88.2505C33.9179 88.7599 35.2014 89.9849 36.0346 91.9256Z" fill="#D9E8EF"/>
<path d="M106.172 11.3103C105.553 10.339 104.846 9.49915 104.053 8.79067C103.26 8.08219 102.257 7.37393 101.047 6.66587L104.536 2.04947C105.881 2.67148 107.185 3.5856 108.448 4.79182C109.738 5.98083 110.822 7.26331 111.699 8.63927C112.8 10.366 113.475 11.9287 113.721 13.3274C113.985 14.753 113.973 16.0133 113.685 17.1082C113.396 18.2031 112.911 19.1387 112.23 19.915C111.565 20.7182 110.856 21.3607 110.1 21.8425C109.345 22.3243 108.566 22.6503 107.763 22.8205C107.005 23.0004 106.245 23.0871 105.481 23.0805C104.718 23.074 103.947 22.9962 103.169 22.8473C102.391 22.6984 101.648 22.5457 100.941 22.3894C100.411 22.2721 99.8453 22.1586 99.2439 22.0487C98.6694 21.9217 98.0852 21.8389 97.4913 21.8002C96.9145 21.7885 96.3365 21.8345 95.7574 21.9382C95.2053 22.0247 94.6999 22.2142 94.2413 22.5067C94.1333 22.5755 93.9715 22.6788 93.7556 22.8164C93.5398 22.9541 93.3595 23.088 93.2149 23.2182L89.8078 17.8763C90.0432 17.6503 90.3141 17.4205 90.6207 17.187C90.9714 16.9633 91.2682 16.774 91.511 16.6192C92.2664 16.1374 93.0011 15.8016 93.7151 15.6119C94.4561 15.405 95.1776 15.2864 95.8795 15.2563C96.6255 15.2359 97.357 15.2817 98.0737 15.3939C98.7905 15.5061 99.5024 15.6403 100.209 15.7967C101.226 16.0214 102.194 16.2008 103.115 16.3349C104.062 16.4517 104.927 16.2606 105.709 15.7616C106.357 15.3486 106.747 14.7396 106.878 13.9344C107.027 13.1563 106.792 12.2816 106.172 11.3103ZM88.2168 28.0571C87.0297 28.8142 85.8628 29.0081 84.7163 28.6386C83.587 28.2962 82.7126 27.6393 82.0931 26.6681C81.4736 25.6968 81.2381 24.6135 81.3866 23.4181C81.5523 22.2497 82.2287 21.2869 83.4158 20.5298C84.6029 19.7726 85.7611 19.5653 86.8905 19.9077C88.037 20.2772 88.92 20.9475 89.5395 21.9188C90.159 22.89 90.3858 23.9599 90.2201 25.1283C90.0717 26.3237 89.4039 27.2999 88.2168 28.0571Z" fill="#D9E8EF"/>
</svg>
