<svg width="71" height="70" viewBox="0 0 71 70" fill="none" xmlns="http://www.w3.org/2000/svg">
<path fill-rule="evenodd" clip-rule="evenodd" d="M18.2814 1.33452C6.74713 7.32338 4.10099 20.5672 12.6389 29.5756C14.8284 31.8846 14.8403 31.9609 13.1796 32.8377C12.2443 33.3319 9.53016 35.6912 7.14762 38.0807C2.73201 42.5107 0 48.1933 0 52.9496C0 55.0128 0.323114 55.3173 2.51263 55.3173C4.74552 55.3173 5.08904 54.9683 5.60347 52.171C6.8058 45.6326 10.8592 40.3233 17.006 37.2324C20.408 35.5217 28.9068 35.2087 32.4355 36.6627L34.6863 37.5907L32.586 41.6297C30.8395 44.9899 30.5368 46.6017 30.7825 51.2221C31.1643 58.373 34.3683 63.8148 40.345 67.4612C44.0294 69.708 45.2555 70 51.018 70C56.7804 70 58.0066 69.708 61.6909 67.4612C64.2707 65.8872 66.8318 63.3601 68.427 60.8145C70.7041 57.1791 71 55.9692 71 50.2832C71 44.5973 70.7041 43.3874 68.427 39.752C63.15 31.3308 51.9856 27.7902 43.032 31.6983C37.4285 34.144 34.6701 32.935 38.3536 29.6478C46.7291 22.1747 43.8984 7.02553 33.1132 1.59629C29.1083 -0.419848 21.9046 -0.547377 18.2814 1.33452ZM29.4926 5.86938C38.141 9.09286 40.6681 20.0789 34.1744 26.2179C29.3047 30.8216 22.396 30.9793 17.3436 26.6022C7.34574 17.9402 17.1216 1.25649 29.4926 5.86938ZM55.5348 36.1979C60.1332 37.5571 64.0888 41.6288 65.4407 46.3953C68.5571 57.3754 58.2055 67.5895 47.0777 64.5145C36.051 61.4689 32.3479 47.7864 40.3986 39.8418C44.6297 35.6677 49.6515 34.4587 55.5348 36.1979ZM52.2934 41.19C47.2937 43.9068 41.6647 51.4 41.6647 55.3391C41.6647 60.3606 45.8294 62.0571 47.9977 57.9191C49.1201 55.7771 49.1226 55.3635 48.0198 54.4598C46.2282 52.9933 46.4578 51.6122 48.9857 48.6489C50.893 46.4112 51.5962 46.1192 53.9974 46.5639C57.374 47.189 60.3713 45.7811 60.3713 43.5712C60.3713 40.6799 55.7431 39.3157 52.2934 41.19Z" fill="#BAD6E3"/>
</svg>
