<svg width="86" height="70" viewBox="0 0 86 70" fill="none" xmlns="http://www.w3.org/2000/svg">
<path fill-rule="evenodd" clip-rule="evenodd" d="M0.90249 0.621831C0.38819 1.18994 0.339921 3.74085 0.339921 30.3178C0.339921 58.0527 0.368474 59.4177 0.961636 59.9545C1.4739 60.4183 2.37129 60.5172 6.06045 60.5172H10.5375L10.545 61.7921C10.5491 62.4935 10.8476 63.7171 11.2082 64.512L11.8639 65.9569H10.0637C8.75126 65.9569 8.11085 66.1256 7.70091 66.5788C6.95614 67.4019 6.98673 68.7741 7.76549 69.4792C8.3437 70.0024 10.9179 70.0398 40.6528 69.9569C71.7804 69.8698 72.9596 69.8437 74.2398 69.2082C76.985 67.8459 78.8392 65.1638 79.1322 62.1321L79.2879 60.5172H82.0814C85.9041 60.5172 86 60.3938 86 55.4661C86 40.7801 81.0552 17.57 75.6317 6.79833C74.9777 5.49959 74.4427 4.35656 74.4427 4.2583C74.4427 4.16005 74.8013 4.07981 75.2398 4.07981C76.9289 4.07981 77.8059 1.70808 76.5403 0.562674C76.0067 0.0795559 74.9808 0 69.2847 0C63.2895 0 62.5968 0.0598367 62.0883 0.621831C61.5998 1.16173 61.526 2.2473 61.5291 8.86645C61.5321 16.1544 61.5675 16.5647 62.3327 18.2082C63.331 20.3528 65.5622 22.2989 67.7762 22.9568C68.8296 23.2695 70.9072 23.4589 73.2849 23.4589H77.1029L77.9728 27.1137C79.756 34.6067 81.217 44.5934 81.7523 52.9525L81.9753 56.4374H80.0412C78.2056 56.4374 78.0163 56.3544 76.3218 54.8055C72.6669 51.4644 68.0603 51.4644 64.4055 54.8055L62.6202 56.4374H60.0334H57.4466V28.7814C57.4466 2.42035 57.4174 1.09883 56.8249 0.562674C56.2573 0.0489573 53.8244 0 28.8341 0C2.75098 0 1.43855 0.0292381 0.90249 0.621831ZM20.7352 9.5777C20.7352 14.2164 20.8232 15.1728 21.2977 15.6974C21.808 16.2614 22.5096 16.3192 28.8341 16.3192C34.8467 16.3192 35.894 16.2417 36.4297 15.7566C36.9837 15.2551 37.0514 14.5887 37.0514 9.63685V4.07981H45.2095H53.3676V30.2586V56.4374H40.2432H27.1189L25.3336 54.8055C21.6788 51.4644 17.0722 51.4644 13.4174 54.8055L11.6321 56.4374H8.02553H4.41897V30.2586V4.07981H12.5771H20.7352V9.5777ZM32.9723 8.15962V12.2394H28.8933H24.8142V8.15962V4.07981H28.8933H32.9723V8.15962ZM70.0733 5.52542C71.6757 8.0991 73.3451 11.7036 74.5872 15.2731C75.2554 17.1937 75.8024 18.8266 75.8024 18.9021C75.8024 18.9776 74.2581 19.0391 72.3705 19.0391C68.335 19.0391 67.3098 18.6077 66.2774 16.4743C65.6921 15.265 65.6047 14.3701 65.6047 9.58212V4.07981L67.3893 4.08049C69.1209 4.08117 69.2008 4.12401 70.0733 5.52542ZM20.707 56.7692C23.1789 57.4784 24.4995 59.9379 23.8013 62.5323C22.6234 66.9072 16.1201 66.8793 14.9395 62.4942C14.2743 60.0225 15.5888 57.4771 17.8863 56.7889C19.2188 56.3901 19.3809 56.3888 20.707 56.7692ZM71.6951 56.7692C74.167 57.4784 75.4876 59.9379 74.7894 62.5323C73.6116 66.9072 67.1082 66.8793 65.9277 62.4942C65.2624 60.0225 66.5769 57.4771 68.8744 56.7889C70.2069 56.3901 70.3691 56.3888 71.6951 56.7692ZM61.5257 61.888C61.5257 62.6421 61.7551 63.8083 62.0356 64.4794C62.316 65.1508 62.5455 65.7577 62.5455 65.8284C62.5455 65.8991 54.5223 65.9569 44.7163 65.9569H26.8871L27.5428 64.512C27.9034 63.7171 28.2019 62.4935 28.206 61.7921L28.2134 60.5172H44.8696H61.5257V61.888ZM0.679842 66.6369C0.305929 67.0109 0 67.6229 0 67.9969C0 69.7083 2.69421 70.6994 3.8564 69.4149C5.71373 67.3621 2.64119 64.6752 0.679842 66.6369Z" fill="#BAD6E3"/>
</svg>
