<svg width="67" height="70" viewBox="0 0 67 70" fill="none" xmlns="http://www.w3.org/2000/svg">
<path fill-rule="evenodd" clip-rule="evenodd" d="M24.9436 1.68844C20.5314 4.02849 16.4686 8.10606 14.2812 12.3906C10.5919 19.6186 12.4662 30.6078 18.2937 35.9178C20.9774 38.3643 20.9633 39.2519 18.2252 40.1272C14.6235 41.2795 6.29251 49.8302 3.64706 55.0915C2.28709 57.7957 0.910003 62.2557 0.586872 65.0015L0 69.994H3.08938C6.02374 69.994 6.23513 69.715 7.33137 64.3939C9.14936 55.5723 17.8528 45.9312 25.6834 44.0648C28.0108 43.511 28.5906 43.8184 29.4332 46.0509C30.8596 49.8313 36.1404 49.8313 37.5668 46.0509C38.4094 43.8184 38.9892 43.511 41.3166 44.0648C49.1472 45.9312 57.8506 55.5723 59.6686 64.3939C60.7649 69.715 60.9763 69.994 63.9106 69.994H67L66.4131 65.0015C66.09 62.2557 64.7129 57.7957 63.3529 55.0915C60.7075 49.8302 52.3765 41.2795 48.7748 40.1272C46.0367 39.2519 46.0226 38.3643 48.7063 35.9178C56.5611 28.7597 56.534 14.7539 48.6489 6.34621C43.0721 0.399236 31.6186 -1.85155 24.9436 1.68844ZM38.2161 7.17086C48.3993 11.0476 51.3608 23.7804 43.9036 31.6242C35.7921 40.1556 20.925 35.3893 18.952 23.6252C17.131 12.7659 28.1628 3.3428 38.2161 7.17086ZM30.0422 52.9391C29.5107 54.6107 27.4602 67.2117 27.4602 68.8092C27.4602 69.5811 29.565 69.994 33.5 69.994C40.4015 69.994 40.1287 70.6117 38.202 59.3436C37.0112 52.3732 36.9286 52.2372 33.7275 51.9248C31.688 51.726 30.3069 52.1064 30.0422 52.9391Z" fill="#BAD6E3"/>
</svg>
