<svg width="56" height="34" viewBox="0 0 56 34" fill="none" xmlns="http://www.w3.org/2000/svg">
<path fill-rule="evenodd" clip-rule="evenodd" d="M0 17V34H28H56V17V0H28H0V17ZM48.342 5.5C48.704 6.32533 49.6753 7.296 50.5 7.658C51.9453 8.292 52 8.634 52 17C52 25.366 51.9453 25.708 50.5 26.342C49.6753 26.704 48.704 27.6753 48.342 28.5L47.684 30H28H8.316L7.658 28.5C7.296 27.6753 6.32533 26.704 5.5 26.342C4.05467 25.708 4 25.366 4 17C4 8.634 4.05467 8.292 5.5 7.658C6.32533 7.296 7.296 6.32533 7.658 5.5L8.316 4H28H47.684L48.342 5.5ZM25.4807 9.60867C25.078 10.494 24.1293 11.414 23.374 11.654C22.3827 11.9687 22 12.6553 22 14.1207C22 15.998 22.1513 16.1293 24 15.858L26 15.564V20.782V26H28H30V17V8H28.1073C26.7527 8 26.0053 8.458 25.4807 9.60867ZM10.8 14.8C9.77133 15.8287 9.77133 18.1713 10.8 19.2C12.67 21.07 16 19.6613 16 17C16 15.2133 14.7867 14 13 14C12.23 14 11.24 14.36 10.8 14.8ZM40.8 14.8C39.7713 15.8287 39.7713 18.1713 40.8 19.2C41.8287 20.2287 44.1713 20.2287 45.2 19.2C47.07 17.33 45.6613 14 43 14C42.23 14 41.24 14.36 40.8 14.8Z" fill="#BAD6E3"/>
</svg>
