<svg width="29" height="28" viewBox="0 0 29 28" fill="none" xmlns="http://www.w3.org/2000/svg">
<path d="M27.1382 14C27.6905 14 28.142 14.4483 28.1024 14.9992C27.9462 17.1716 27.2823 19.2827 26.1579 21.162C24.8617 23.3283 23.0018 25.1061 20.7744 26.3077C18.547 27.5093 16.0348 28.0901 13.5032 27.9887C10.9716 27.8873 8.5145 27.1074 6.39137 25.7316C4.26824 24.3557 2.55789 22.4349 1.44093 20.1719C0.323974 17.9089 -0.158132 15.3877 0.0455238 12.8747C0.24918 10.3616 1.13104 7.94993 2.59798 5.89428C3.87201 4.10895 5.5463 2.64973 7.48264 1.62892C7.96994 1.37202 8.56063 1.60289 8.78431 2.1063L10.9467 6.97288C11.1715 7.47889 10.9371 8.0653 10.4691 8.36118C9.73779 8.82348 9.10058 9.42405 8.5953 10.1321C7.89531 11.113 7.4745 12.2638 7.37732 13.463C7.28014 14.6622 7.51019 15.8652 8.04319 16.9451C8.57618 18.025 9.39232 18.9415 10.4054 19.5981C11.4186 20.2546 12.591 20.6267 13.7991 20.6751C15.0071 20.7235 16.2059 20.4464 17.2687 19.873C18.3316 19.2996 19.2192 18.4513 19.8376 17.4176C20.2841 16.6714 20.5784 15.8487 20.7076 14.9962C20.7903 14.4502 21.2303 14 21.7826 14H27.1382Z" fill="#3B5998"/>
<g clip-path="url(#clip0)">
<path d="M15.9288 2C8.78822 2 3 7.78822 3 14.9288C3 22.0694 8.78822 27.8576 15.9288 27.8576C23.0694 27.8576 28.8576 22.0694 28.8576 14.9288C28.8576 7.78822 23.0694 2 15.9288 2ZM15.9288 4.58576C21.6407 4.58576 26.2718 9.21685 26.2718 14.9288C26.2718 20.0155 22.5951 24.2351 17.757 25.1001V18.8529H20.815L21.2695 15.3303H17.7772V13.0854C17.7772 12.0666 18.0611 11.3784 19.5221 11.3784H21.368V8.23461C20.4694 8.14281 19.5673 8.09819 18.6635 8.10077C15.9821 8.10077 14.146 9.73736 14.146 12.742V15.3353H11.1158V18.8579H14.146V25.1077C9.28558 24.2611 5.58576 20.0314 5.58576 14.9288C5.58576 9.21685 10.2169 4.58576 15.9288 4.58576Z" fill="black"/>
</g>
<defs>
<clipPath id="clip0">
<rect width="25.8576" height="25.8576" fill="white" transform="translate(3 2)"/>
</clipPath>
</defs>
</svg>
