<svg width="29" height="28" viewBox="0 0 29 28" fill="none" xmlns="http://www.w3.org/2000/svg">
<path d="M27.1382 14C27.6905 14 28.142 14.4483 28.1024 14.9992C27.9462 17.1716 27.2823 19.2827 26.1579 21.162C24.8617 23.3283 23.0018 25.1061 20.7744 26.3077C18.547 27.5093 16.0348 28.0901 13.5032 27.9887C10.9716 27.8873 8.5145 27.1074 6.39137 25.7316C4.26824 24.3557 2.55789 22.4349 1.44093 20.1719C0.323974 17.9089 -0.158132 15.3877 0.0455238 12.8747C0.24918 10.3616 1.13104 7.94993 2.59798 5.89428C3.87201 4.10895 5.5463 2.64973 7.48264 1.62892C7.96994 1.37202 8.56063 1.60289 8.78431 2.1063L10.9467 6.97288C11.1715 7.47889 10.9371 8.0653 10.4691 8.36118C9.73779 8.82348 9.10058 9.42405 8.5953 10.1321C7.89531 11.113 7.4745 12.2638 7.37732 13.463C7.28014 14.6622 7.51019 15.8652 8.04319 16.9451C8.57618 18.025 9.39232 18.9415 10.4054 19.5981C11.4186 20.2546 12.591 20.6267 13.7991 20.6751C15.0071 20.7235 16.2059 20.4464 17.2687 19.873C18.3316 19.2996 19.2192 18.4513 19.8376 17.4176C20.2841 16.6714 20.5784 15.8487 20.7076 14.9962C20.7903 14.4502 21.2303 14 21.7826 14H27.1382Z" fill="#1A91DA"/>
<path d="M29 6.30078C28.1016 6.69922 27.1992 7 26.1992 7.10156C27.1992 6.5 28 5.5 28.3984 4.39844C27.3984 5 26.3984 5.39844 25.3008 5.60156C24.3008 4.60156 23 4 21.6016 4C18.8984 4 16.6992 6.19922 16.6992 8.89844C16.6992 9.30078 16.6992 9.69922 16.8008 10C12.6992 9.80078 9.10156 7.89844 6.69922 4.89844C6.19922 5.60156 6 6.5 6 7.39844C6 9.10156 6.89844 10.6016 8.19922 11.5C7.39844 11.3984 6.60156 11.1992 6 10.8984C6 10.8984 6 10.8984 6 11C6 13.3984 7.69922 15.3984 9.89844 15.8008C9.5 15.8984 9.10156 16 8.60156 16C8.30078 16 8 16 7.69922 15.8984C8.30078 17.8984 10.1016 19.3008 12.3008 19.3008C10.6016 20.6016 8.5 21.3984 6.19922 21.3984C5.80078 21.3984 5.39844 21.3984 5 21.3008C7.19922 22.6992 9.80078 23.5 12.5 23.5C21.6016 23.5 26.5 16 26.5 9.5C26.5 9.30078 26.5 9.10156 26.5 8.89844C27.5 8.19922 28.3008 7.30078 29 6.30078Z" fill="black"/>
</svg>
