<svg width="29" height="28" viewBox="0 0 29 28" fill="none" xmlns="http://www.w3.org/2000/svg">
<path d="M27.1382 14C27.6905 14 28.142 14.4483 28.1024 14.9992C27.9462 17.1716 27.2823 19.2827 26.1579 21.162C24.8617 23.3283 23.0018 25.1061 20.7744 26.3077C18.547 27.5093 16.0348 28.0901 13.5032 27.9887C10.9716 27.8873 8.5145 27.1074 6.39137 25.7316C4.26824 24.3557 2.55789 22.4349 1.44093 20.1719C0.323974 17.9089 -0.158132 15.3877 0.0455238 12.8747C0.24918 10.3616 1.13104 7.94993 2.59798 5.89428C3.87201 4.10895 5.5463 2.64973 7.48264 1.62892C7.96994 1.37202 8.56063 1.60289 8.78431 2.1063L10.9467 6.97288C11.1715 7.47889 10.9371 8.0653 10.4691 8.36118C9.73779 8.82348 9.10058 9.42405 8.5953 10.1321C7.89531 11.113 7.4745 12.2638 7.37732 13.463C7.28014 14.6622 7.51019 15.8652 8.04319 16.9451C8.57618 18.025 9.39232 18.9415 10.4054 19.5981C11.4186 20.2546 12.591 20.6267 13.7991 20.6751C15.0071 20.7235 16.2059 20.4464 17.2687 19.873C18.3316 19.2996 19.2192 18.4513 19.8376 17.4176C20.2841 16.6714 20.5784 15.8487 20.7076 14.9962C20.7903 14.4502 21.2303 14 21.7826 14H27.1382Z" fill="#30A9DB"/>
<g clip-path="url(#clip0)">
<path d="M27.1456 2.62739C26.7137 2.58157 26.2442 2.64904 25.7725 2.83558C25.1877 3.06565 16.0242 6.9213 7.48214 10.5181L4.65965 11.7062C3.56672 12.1495 3.01489 12.8704 3.01489 13.8414C3.01489 14.5212 3.30254 15.4433 4.67488 15.9867L9.4391 17.8959C9.85106 19.1321 10.8079 22.0023 11.0483 22.7654C11.1913 23.2177 11.5523 24.3573 12.4646 24.6238C12.6518 24.6875 12.8471 24.7203 13.0459 24.7203C13.6216 24.7203 14.0361 24.4523 14.2388 24.2963L17.2669 21.7346L20.9448 25.1366C21.0864 25.2809 21.8362 26.01 22.8434 26.01C24.1 26.01 25.0533 24.9636 25.2521 23.951C25.36 23.3959 28.9071 5.58506 28.9071 5.58766C29.2255 4.1591 28.6531 3.41802 28.2853 3.10215C27.9701 2.83243 27.5776 2.67321 27.1456 2.62739ZM26.2852 5.43533C25.7952 7.8921 23.1245 21.3021 22.719 23.235L17.3431 18.2615L13.6957 21.3512L14.7059 17.3983C14.7059 17.3983 21.6748 10.3424 22.0946 9.93159C22.4325 9.60272 22.5033 9.48744 22.5033 9.37305C22.5033 9.22097 22.425 9.11155 22.2444 9.11155C22.0819 9.11155 21.8613 9.26725 21.7443 9.34005C20.2585 10.2666 13.9315 13.872 10.8173 15.644L6.29933 13.8388L8.49234 12.9173C14.0792 10.5645 24.0291 6.37385 26.2852 5.43533Z" fill="black"/>
</g>
<defs>
<clipPath id="clip0">
<rect width="25.9852" height="25.8168" fill="white" transform="translate(3.01489 1)"/>
</clipPath>
</defs>
</svg>
