<svg width="15" height="14" viewBox="0 0 15 14" fill="none" xmlns="http://www.w3.org/2000/svg">
<g clip-path="url(#clip0)">
<path d="M13.0857 0.882512C12.8515 0.857664 12.5969 0.894253 12.3411 0.995406C12.0239 1.12017 7.05471 3.21103 2.42251 5.16149L0.891925 5.80582C0.299247 6.04619 0 6.43711 0 6.96368C0 7.33234 0.155988 7.83239 0.900184 8.12704L3.48374 9.16236C3.70714 9.83273 4.22602 11.3892 4.35639 11.803C4.43392 12.0483 4.62972 12.6663 5.12444 12.8108C5.22592 12.8453 5.33182 12.8631 5.43964 12.8631C5.75184 12.8631 5.97663 12.7178 6.08657 12.6332L7.72864 11.244L9.72309 13.0889C9.7999 13.1671 10.2065 13.5625 10.7527 13.5625C11.4341 13.5625 11.9511 12.9951 12.0589 12.4459C12.1174 12.145 14.0409 2.48641 14.0409 2.48782C14.2136 1.71313 13.9032 1.31126 13.7037 1.13997C13.5328 0.993699 13.3199 0.907359 13.0857 0.882512ZM12.6191 2.40521C12.3534 3.73748 10.9051 11.0095 10.6852 12.0577L7.76994 9.36062L5.79201 11.0361L6.33983 8.89252C6.33983 8.89252 10.119 5.06621 10.3466 4.84346C10.5298 4.66512 10.5682 4.6026 10.5682 4.54057C10.5682 4.4581 10.5258 4.39876 10.4278 4.39876C10.3397 4.39876 10.2201 4.4832 10.1567 4.52267C9.35091 5.02514 5.91987 6.98029 4.23114 7.94118L1.7811 6.9623L2.97033 6.46253C5.99997 5.18666 11.3957 2.91415 12.6191 2.40521Z" fill="#56BC53"/>
</g>
<defs>
<clipPath id="clip0">
<rect width="14.0913" height="14" fill="white"/>
</clipPath>
</defs>
</svg>
