<svg width="14" height="14" viewBox="0 0 14 14" fill="none" xmlns="http://www.w3.org/2000/svg">
<path d="M14 2.50863C13.4759 2.74105 12.9495 2.9165 12.3662 2.97575C12.9495 2.62484 13.4167 2.0415 13.6491 1.39893C13.0658 1.74984 12.4824 1.98226 11.8421 2.10075C11.2588 1.51742 10.5 1.1665 9.68424 1.1665C8.10742 1.1665 6.82454 2.44938 6.82454 4.02393C6.82454 4.25863 6.82454 4.49105 6.88379 4.6665C4.49121 4.55029 2.39258 3.44059 0.991211 1.69059C0.699544 2.10075 0.583333 2.62484 0.583333 3.14893C0.583333 4.14242 1.10742 5.01742 1.86621 5.5415C1.39909 5.48226 0.934245 5.36605 0.583333 5.19059C0.583333 5.19059 0.583333 5.19059 0.583333 5.24984C0.583333 6.64893 1.57454 7.81559 2.85742 8.05029C2.625 8.10726 2.39258 8.1665 2.10091 8.1665C1.92546 8.1665 1.75 8.1665 1.57454 8.10726C1.92546 9.27393 2.97591 10.092 4.25879 10.092C3.26758 10.8507 2.04167 11.3156 0.699544 11.3156C0.467122 11.3156 0.232422 11.3156 0 11.2586C1.28288 12.0744 2.80046 12.5415 4.375 12.5415C9.68425 12.5415 12.5417 8.1665 12.5417 4.37484C12.5417 4.25863 12.5417 4.14242 12.5417 4.02393C13.125 3.61605 13.5921 3.09196 14 2.50863Z" fill="#56BC53"/>
</svg>
