<svg width="14" height="14" viewBox="0 0 14 14" fill="none" xmlns="http://www.w3.org/2000/svg">
<path d="M7 0C3.1339 0 0 3.1339 0 7C0 10.8661 3.1339 14 7 14C10.8661 14 14 10.8661 14 7C14 3.1339 10.8661 0 7 0ZM7 1.4C10.0926 1.4 12.6 3.9074 12.6 7C12.6 9.75408 10.6093 12.0387 7.98984 12.507V9.12461H9.64551L9.8916 7.21738H8.00078V6.00195C8.00078 5.45035 8.15451 5.07773 8.94551 5.07773H9.94492V3.37559C9.45842 3.32589 8.96996 3.30172 8.48066 3.30312C7.02886 3.30312 6.03477 4.18922 6.03477 5.81602V7.22012H4.39414V9.12734H6.03477V12.5111C3.40319 12.0527 1.4 9.76267 1.4 7C1.4 3.9074 3.9074 1.4 7 1.4Z" fill="#56BC53"/>
</svg>
