<?xml version="1.0" encoding="utf-8"?><svg xmlns="http://www.w3.org/2000/svg" xmlns:xlink="http://www.w3.org/1999/xlink"><symbol viewBox="0 0 26 26" id="cart" xmlns="http://www.w3.org/2000/svg"><path fill-rule="evenodd" clip-rule="evenodd" d="M7.35 2.758c-.327.31-1.13 1.884-1.784 3.499L4.377 9.192l-.886.004c-1.583.008-1.633.353-.605 4.21 1.551 5.826 1.87 6.816 2.36 7.317.447.459.872.486 7.552.486s7.106-.027 7.553-.486c.489-.5.808-1.491 2.36-7.317 1.027-3.857.978-4.202-.606-4.21l-.885-.004-1.19-2.935c-1.726-4.262-1.37-4.062-7.232-4.062-4.695 0-4.874.019-5.448.563zM18.067 6.64l.997 2.436-3.132.07c-1.724.038-4.544.038-6.267 0l-3.133-.07.997-2.436.998-2.437h8.543l.997 2.437zm2.381 7.627c-.453 1.686-.935 3.487-1.072 4.003l-.25.938h-6.32c-5.81 0-6.331-.035-6.447-.438-.07-.24-.52-1.9-1-3.69-.482-1.788-.923-3.393-.982-3.565-.084-.246 1.7-.312 8.393-.312h8.5l-.822 3.064zm-12.27-.709c-.45.555-.235 3.16.288 3.497.788.506 1.272-.105 1.355-1.709.078-1.513-.195-2.142-.928-2.142-.236 0-.558.16-.715.354zm3.905 0c-.449.555-.234 3.16.288 3.497.788.506 1.273-.105 1.355-1.709.079-1.513-.194-2.142-.928-2.142-.235 0-.557.16-.715.354zm3.906 0c-.45.555-.235 3.16.288 3.497.788.506 1.272-.105 1.355-1.709.078-1.513-.195-2.142-.928-2.142-.236 0-.558.16-.715.354z"/></symbol><symbol viewBox="0 0 21 20" id="star" xmlns="http://www.w3.org/2000/svg"><path fill-rule="evenodd" clip-rule="evenodd" d="M8.358 3.49c-1.265 2.524-1.44 2.754-2.192 2.883-.45.077-1.863.303-3.14.502-1.277.199-2.431.43-2.566.513-.578.357-.114 1.12 1.932 3.176l2.177 2.187-.458 3.234c-.252 1.78-.38 3.36-.284 3.515.302.489.865.317 3.685-1.126l2.75-1.407 2.708 1.407c2.767 1.438 3.358 1.62 3.663 1.126.096-.154-.032-1.736-.284-3.515l-.458-3.234 2.177-2.187c2.046-2.057 2.51-2.819 1.932-3.176-.135-.083-1.29-.314-2.566-.513-1.277-.2-2.69-.425-3.14-.502-.752-.129-.927-.359-2.192-2.883C11.046 1.385 10.612.748 10.23.748c-.381 0-.816.637-1.872 2.742zm3.006 2.78c1.155 2.33.29 1.931 3.866 2.478l2 .5-1.5 1-2 2 .408 2.313c.175 1.28.398 1.93.592 2.406.07.183-.674-.06-2-.72l-2.468-1.5-2.532 1.238c-1.326.66-1.916 1.165-1.846.982.07-.183.241-1.125.416-2.406l.43-2.313L4.5 10 3.23 8.748l1.339-.185c3.577-.546 3.274.037 4.429-2.293.574-1.158 1.156-2.022 1.232-2.022.076 0 .56.864 1.134 2.022z"/></symbol><symbol viewBox="0 0 19 19" id="user" xmlns="http://www.w3.org/2000/svg"><path fill-rule="evenodd" clip-rule="evenodd" d="M7.7.375c-.482.246-1.194.866-1.583 1.378-.575.755-.707 1.21-.707 2.426 0 1.242.13 1.668.76 2.497 2.312 3.04 7.053 1.765 7.477-2.011.171-1.525-.4-2.864-1.623-3.799C10.809-.064 8.967-.273 7.7.375zm3.263 2.337c1.31 1.312.382 3.585-1.463 3.585-.514 0-1.055-.24-1.463-.65-1.31-1.313-.382-3.585 1.463-3.585.514 0 1.055.24 1.463.65zM6.201 11.98c-2.337.513-4.374 1.511-5.344 2.619C.08 15.488 0 15.736 0 17.289 0 17.289 0 19 1.5 19h16c1.5 0 1.5-1.711 1.5-1.711 0-1.553-.08-1.802-.857-2.69-2.07-2.365-7.589-3.575-11.942-2.62zm7.55 2.5c1.864.586 3.138 1.409 3.138 2.025 0 .318-1.164.378-7.389.378-6.014 0-7.389-.066-7.389-.356 0-1.348 4.548-2.905 7.917-2.711 1.088.062 2.764.36 3.724.663z"/></symbol><symbol viewBox="0 0 23 23" id="zoom" xmlns="http://www.w3.org/2000/svg"><path d="M13.216 16.435a6.708 6.708 0 100-13.416 6.708 6.708 0 000 13.416zM8.357 14.72l-4.495 4.494"/></symbol></svg>