<svg width="26" height="26" viewBox="0 0 26 26" fill="none" xmlns="http://www.w3.org/2000/svg">
<path fill-rule="evenodd" clip-rule="evenodd" d="M7.34959 2.75822C7.02299 3.06794 6.2204 4.64205 5.56622 6.2567L4.37698 9.19227L3.4914 9.19628C1.90794 9.20353 1.85814 9.54878 2.88555 13.406C4.43727 19.2316 4.75679 20.2221 5.24596 20.7234C5.69291 21.1815 6.11837 21.2088 12.7983 21.2088C19.4783 21.2088 19.9037 21.1815 20.3507 20.7234C20.8399 20.2221 21.1594 19.2316 22.7111 13.406C23.7385 9.54878 23.6887 9.20353 22.1053 9.19628L21.2197 9.19227L20.0304 6.2567C18.3039 1.99518 18.6603 2.19532 12.7983 2.19532C8.10263 2.19532 7.9242 2.21384 7.34959 2.75822ZM18.0674 6.63897L19.0645 9.07519L15.9316 9.14499C14.2082 9.18327 11.3884 9.18327 9.6651 9.14499L6.53211 9.07519L7.52925 6.63897L8.52663 4.20249H12.7983H17.07L18.0674 6.63897ZM20.4481 14.2664C19.9955 15.9518 19.5132 17.7533 19.3758 18.2692L19.1261 19.2074H12.8054C6.99638 19.2074 6.4745 19.1718 6.3588 18.7695C6.28972 18.5286 5.83936 16.8682 5.35825 15.0794C4.87713 13.2907 4.43556 11.6865 4.37698 11.5144C4.29301 11.2682 6.07614 11.2017 12.7703 11.2017H21.2704L20.4481 14.2664ZM8.17757 13.5574C7.72868 14.1118 7.94324 16.7176 8.4656 17.0536C9.25355 17.5604 9.73833 16.9493 9.82083 15.3451C9.89894 13.8323 9.62629 13.2031 8.89277 13.2031C8.65722 13.2031 8.33526 13.3625 8.17757 13.5574ZM12.0831 13.5574C11.6342 14.1118 11.8488 16.7176 12.3712 17.0536C13.1591 17.5604 13.6439 16.9493 13.7264 15.3451C13.8045 13.8323 13.5318 13.2031 12.7983 13.2031C12.5628 13.2031 12.2408 13.3625 12.0831 13.5574ZM15.9887 13.5574C15.5398 14.1118 15.7543 16.7176 16.2767 17.0536C17.0647 17.5604 17.5494 16.9493 17.6319 15.3451C17.71 13.8323 17.4374 13.2031 16.7039 13.2031C16.4683 13.2031 16.1464 13.3625 15.9887 13.5574Z" fill="#4A8748"/>
</svg>
