<svg width="22" height="20" viewBox="0 0 22 20" fill="none" xmlns="http://www.w3.org/2000/svg">
<path fill-rule="evenodd" clip-rule="evenodd" d="M5.34959 0.758222C5.02299 1.06794 4.2204 2.64205 3.56622 4.2567L2.37698 7.19227L1.4914 7.19628C-0.0920616 7.20353 -0.141857 7.54878 0.885547 11.406C2.43727 17.2316 2.75679 18.2221 3.24596 18.7234C3.69291 19.1815 4.11837 19.2088 10.7983 19.2088C17.4783 19.2088 17.9037 19.1815 18.3507 18.7234C18.8399 18.2221 19.1594 17.2316 20.7111 11.406C21.7385 7.54878 21.6887 7.20353 20.1053 7.19628L19.2197 7.19227L18.0304 4.2567C16.3039 -0.0048188 16.6603 0.195323 10.7983 0.195323C6.10263 0.195323 5.9242 0.213836 5.34959 0.758222ZM16.0674 4.63897L17.0645 7.07519L13.9316 7.14499C12.2082 7.18327 9.38842 7.18327 7.6651 7.14499L4.53211 7.07519L5.52925 4.63897L6.52663 2.20249H10.7983H15.07L16.0674 4.63897ZM18.4481 12.2664C17.9955 13.9518 17.5132 15.7533 17.3758 16.2692L17.1261 17.2074H10.8054C4.99638 17.2074 4.4745 17.1718 4.3588 16.7695C4.28972 16.5286 3.83936 14.8682 3.35825 13.0794C2.87713 11.2907 2.43556 9.68654 2.37698 9.51442C2.29301 9.26824 4.07614 9.20169 10.7703 9.20169H19.2704L18.4481 12.2664ZM6.17757 11.5574C5.72868 12.1118 5.94324 14.7176 6.4656 15.0536C7.25355 15.5604 7.73833 14.9493 7.82083 13.3451C7.89894 11.8323 7.62629 11.2031 6.89277 11.2031C6.65722 11.2031 6.33526 11.3625 6.17757 11.5574ZM10.0831 11.5574C9.63423 12.1118 9.84879 14.7176 10.3712 15.0536C11.1591 15.5604 11.6439 14.9493 11.7264 13.3451C11.8045 11.8323 11.5318 11.2031 10.7983 11.2031C10.5628 11.2031 10.2408 11.3625 10.0831 11.5574ZM13.9887 11.5574C13.5398 12.1118 13.7543 14.7176 14.2767 15.0536C15.0647 15.5604 15.5494 14.9493 15.6319 13.3451C15.71 11.8323 15.4374 11.2031 14.7039 11.2031C14.4683 11.2031 14.1464 11.3625 13.9887 11.5574Z" fill="#4A8748"/>
</svg>
