<svg width="21" height="20" viewBox="0 0 21 20" fill="none" xmlns="http://www.w3.org/2000/svg">
<path fill-rule="evenodd" clip-rule="evenodd" d="M8.35825 3.4904C7.0929 6.0141 6.9179 6.24426 6.16555 6.37274C5.71589 6.44962 4.30308 6.67552 3.02621 6.87462C1.74935 7.07372 0.594665 7.30463 0.459969 7.38778C-0.117875 7.74516 0.345802 8.50725 2.39204 10.5636L4.56897 12.7512L4.11105 15.9854C3.85943 17.7641 3.73149 19.3459 3.82688 19.5002C4.12882 19.989 4.6924 19.8167 7.51226 18.3739L10.2625 16.9669L12.97 18.3739C15.737 19.8122 16.3281 19.9938 16.6331 19.5002C16.7285 19.3459 16.6005 17.7641 16.3489 15.9854L15.891 12.7512L18.0679 10.5636C20.1142 8.50725 20.5778 7.74516 20 7.38778C19.8653 7.30463 18.7106 7.07372 17.4337 6.87462C16.1569 6.67552 14.7441 6.44962 14.2944 6.37274C13.5421 6.24426 13.3671 6.0141 12.1017 3.4904C11.0459 1.38468 10.6113 0.747559 10.23 0.747559C9.84867 0.747559 9.41404 1.38468 8.35825 3.4904ZM11.3637 6.2698C12.5189 8.59992 11.6533 8.20134 15.23 8.74756L17.23 9.24756L15.73 10.2476L13.73 12.2476L14.1376 14.5607C14.3126 15.8419 14.5361 16.4914 14.73 16.9669C14.8003 17.15 14.0559 16.9065 12.73 16.2476L10.2625 14.7476L7.72998 15.9854C6.40405 16.6444 5.8141 17.15 5.88446 16.9669C5.95456 16.7839 6.12524 15.8419 6.30024 14.5607L6.72998 12.2476L4.5 10L3.22998 8.74756L4.56897 8.56328C8.14569 8.01707 7.84255 8.59992 8.99773 6.2698C9.57207 5.11151 10.1536 4.24756 10.23 4.24756C10.3063 4.24756 10.7893 5.11151 11.3637 6.2698Z" fill="#4A8748"/>
</svg>
