<svg width="19" height="19" viewBox="0 0 19 19" fill="none" xmlns="http://www.w3.org/2000/svg">
<path fill-rule="evenodd" clip-rule="evenodd" d="M7.70028 0.374868C7.21815 0.621262 6.50565 1.24135 6.11695 1.75266C5.54246 2.50773 5.40972 2.96373 5.40972 4.17929C5.40972 5.42105 5.53929 5.84662 6.17025 6.67605C8.48218 9.71615 13.2227 8.44077 13.647 4.66467C13.8185 3.14025 13.2462 1.8011 12.0238 0.866069C10.8086 -0.0636663 8.96695 -0.272744 7.70028 0.374868ZM10.9633 2.71178C12.2724 4.02447 11.3448 6.29654 9.5 6.29654C8.98594 6.29654 8.44497 6.05649 8.03674 5.64681C6.72758 4.33411 7.65515 2.06205 9.5 2.06205C10.0141 2.06205 10.555 2.30209 10.9633 2.71178ZM6.20139 11.9795C3.86413 12.4929 1.82664 13.4915 0.857111 14.5988C0.0791668 15.4875 0 15.736 0 17.289C0 17.289 0 19 1.5 19C4.4999 19 9.5 19 9.5 19C9.5 19 16 19 17.5 19C19 19 19 17.289 19 17.289C19 15.736 18.9208 15.4875 18.1429 14.5988C16.0724 12.2338 10.554 11.0235 6.20139 11.9795ZM13.7518 14.4792C15.6148 15.0662 16.8889 15.889 16.8889 16.5051C16.8889 16.8232 15.7249 16.8828 9.5 16.8828C3.4865 16.8828 2.11111 16.8166 2.11111 16.5268C2.11111 15.1794 6.65871 13.6219 10.0278 13.8157C11.1163 13.8781 12.792 14.1767 13.7518 14.4792Z" fill="#4A8748"/>
</svg>
